/* XPM */
static char * collectible_xpm[] = {
"64 64 395 2",
"  	c #000000",
". 	c #468B4F",
"+ 	c #000100",
"@ 	c #214124",
"# 	c #45854C",
"$ 	c #000101",
"% 	c #030F04",
"& 	c #326E3A",
"* 	c #539D58",
"= 	c #2F6133",
"- 	c #2D4F30",
"; 	c #407C47",
"> 	c #1A391E",
", 	c #3B7441",
"' 	c #39673A",
") 	c #49984D",
"! 	c #2F5132",
"~ 	c #26522A",
"{ 	c #254F29",
"] 	c #35703D",
"^ 	c #305D34",
"/ 	c #326A38",
"( 	c #346A37",
"_ 	c #37753B",
": 	c #2B532E",
"< 	c #2C5030",
"[ 	c #1C341E",
"} 	c #1B401F",
"| 	c #1E3D20",
"1 	c #1A3F1D",
"2 	c #427B47",
"3 	c #112213",
"4 	c #39723E",
"5 	c #3D7041",
"6 	c #3E7E45",
"7 	c #48854C",
"8 	c #2C6032",
"9 	c #3F7F46",
"0 	c #397141",
"a 	c #44854A",
"b 	c #326736",
"c 	c #356F3B",
"d 	c #326238",
"e 	c #245129",
"f 	c #3C7840",
"g 	c #3D7242",
"h 	c #428048",
"i 	c #2F5A34",
"j 	c #529C59",
"k 	c #346A39",
"l 	c #316937",
"m 	c #152416",
"n 	c #447747",
"o 	c #386E3D",
"p 	c #295D2F",
"q 	c #36713B",
"r 	c #37703A",
"s 	c #2E6733",
"t 	c #213D24",
"u 	c #3F7D44",
"v 	c #376E3D",
"w 	c #3B7A42",
"x 	c #3C7541",
"y 	c #427F46",
"z 	c #245028",
"A 	c #44874A",
"B 	c #366639",
"C 	c #48924E",
"D 	c #46854C",
"E 	c #418047",
"F 	c #488D4E",
"G 	c #3F7946",
"H 	c #3B7840",
"I 	c #3D7D41",
"J 	c #2F5232",
"K 	c #2F6633",
"L 	c #5EAC62",
"M 	c #48864C",
"N 	c #428547",
"O 	c #284929",
"P 	c #4F9253",
"Q 	c #37663A",
"R 	c #55A15A",
"S 	c #2B542E",
"T 	c #265029",
"U 	c #366E3C",
"V 	c #509755",
"W 	c #46894C",
"X 	c #468A4B",
"Y 	c #2C602F",
"Z 	c #2F6334",
"` 	c #488E4D",
" .	c #488A4E",
"..	c #2F6836",
"+.	c #4E9C55",
"@.	c #519255",
"#.	c #306634",
"$.	c #3E6E41",
"%.	c #47854D",
"&.	c #234B25",
"*.	c #355B36",
"=.	c #37713E",
"-.	c #316837",
";.	c #1E391F",
">.	c #539557",
",.	c #1C411E",
"'.	c #1B421F",
").	c #274C2A",
"!.	c #18401C",
"~.	c #183F1C",
"{.	c #49824E",
"].	c #214724",
"^.	c #19401D",
"/.	c #193F1D",
"(.	c #42804A",
"_.	c #53A05B",
":.	c #4F9154",
"<.	c #57A15F",
"[.	c #559D5C",
"}.	c #316835",
"|.	c #539D5A",
"1.	c #509356",
"2.	c #427C49",
"3.	c #3D7743",
"4.	c #518E56",
"5.	c #3D6A40",
"6.	c #36643A",
"7.	c #3B7041",
"8.	c #3F7143",
"9.	c #244A27",
"0.	c #010101",
"a.	c #1B351D",
"b.	c #3E7143",
"c.	c #1F3620",
"d.	c #2E5E31",
"e.	c #3E6E43",
"f.	c #4F9556",
"g.	c #316135",
"h.	c #4C8652",
"i.	c #2F5731",
"j.	c #509554",
"k.	c #4A8A4F",
"l.	c #529557",
"m.	c #529355",
"n.	c #244D29",
"o.	c #244C28",
"p.	c #417444",
"q.	c #010201",
"r.	c #5AA661",
"s.	c #498B4E",
"t.	c #519957",
"u.	c #39723C",
"v.	c #4D8D52",
"w.	c #457B47",
"x.	c #529758",
"y.	c #559B59",
"z.	c #457F48",
"A.	c #47864B",
"B.	c #57A05B",
"C.	c #204620",
"D.	c #1E4223",
"E.	c #44894E",
"F.	c #36673B",
"G.	c #366539",
"H.	c #47824A",
"I.	c #142415",
"J.	c #132314",
"K.	c #142717",
"L.	c #162A18",
"M.	c #162B19",
"N.	c #182F1B",
"O.	c #0C170C",
"P.	c #0F1C10",
"Q.	c #488C4F",
"R.	c #24542A",
"S.	c #519D5A",
"T.	c #2A552C",
"U.	c #38693C",
"V.	c #2D5A31",
"W.	c #427E48",
"X.	c #17321A",
"Y.	c #3E7943",
"Z.	c #2A562D",
"`.	c #376A3B",
" +	c #2F6033",
".+	c #2B4D2F",
"++	c #335838",
"@+	c #376B3C",
"#+	c #2B582F",
"$+	c #396A3D",
"%+	c #39703D",
"&+	c #44864B",
"*+	c #2A582F",
"=+	c #315D35",
"-+	c #3B7140",
";+	c #142E17",
">+	c #1C441F",
",+	c #356136",
"'+	c #4C9950",
")+	c #48824A",
"!+	c #4A914D",
"~+	c #407A45",
"{+	c #0F1E10",
"]+	c #4B9353",
"^+	c #519056",
"/+	c #57A85F",
"(+	c #4B9753",
"_+	c #1D3F1F",
":+	c #478D4E",
"<+	c #408845",
"[+	c #44904A",
"}+	c #458A49",
"|+	c #4B8E4F",
"1+	c #3E7B43",
"2+	c #56A05B",
"3+	c #529A59",
"4+	c #55AA5D",
"5+	c #529959",
"6+	c #4B9B53",
"7+	c #326136",
"8+	c #2D6332",
"9+	c #47874A",
"0+	c #46894A",
"a+	c #152E16",
"b+	c #1C421F",
"c+	c #488E4C",
"d+	c #509C55",
"e+	c #27512A",
"f+	c #356839",
"g+	c #316235",
"h+	c #0B180B",
"i+	c #356C3B",
"j+	c #417446",
"k+	c #47854C",
"l+	c #38723D",
"m+	c #143015",
"n+	c #498D4E",
"o+	c #37733B",
"p+	c #316B34",
"q+	c #346C36",
"r+	c #3E8245",
"s+	c #35733B",
"t+	c #2F6233",
"u+	c #306432",
"v+	c #438649",
"w+	c #38703C",
"x+	c #326D37",
"y+	c #3E8445",
"z+	c #3D8245",
"A+	c #3A743F",
"B+	c #428548",
"C+	c #2C512F",
"D+	c #36703B",
"E+	c #376E39",
"F+	c #468C4C",
"G+	c #47864D",
"H+	c #19411D",
"I+	c #173F1C",
"J+	c #356038",
"K+	c #356B3B",
"L+	c #2E5632",
"M+	c #3A6A3D",
"N+	c #214324",
"O+	c #1B401E",
"P+	c #365E3A",
"Q+	c #47874E",
"R+	c #3B7240",
"S+	c #46824B",
"T+	c #38753F",
"U+	c #45804A",
"V+	c #4B9551",
"W+	c #36693B",
"X+	c #152A17",
"Y+	c #427A46",
"Z+	c #214C24",
"`+	c #418948",
" @	c #28592E",
".@	c #448B49",
"+@	c #305F33",
"@@	c #000600",
"#@	c #42884A",
"$@	c #366B3A",
"%@	c #488F4C",
"&@	c #3B7642",
"*@	c #4B8F50",
"=@	c #29532D",
"-@	c #4B9051",
";@	c #366C3A",
">@	c #39753B",
",@	c #4B9150",
"'@	c #316336",
")@	c #59AC60",
"!@	c #2C5930",
"~@	c #4C9051",
"{@	c #234E26",
"]@	c #458549",
"^@	c #468649",
"/@	c #376D3C",
"(@	c #53AA5A",
"_@	c #2B512D",
":@	c #539757",
"<@	c #2D5930",
"[@	c #4E9254",
"}@	c #49864E",
"|@	c #519B5B",
"1@	c #51A058",
"2@	c #48824C",
"3@	c #60B768",
"4@	c #4E9855",
"5@	c #4A9351",
"6@	c #2E5832",
"7@	c #2E6231",
"8@	c #3D7C42",
"9@	c #408445",
"0@	c #3B683F",
"a@	c #448146",
"b@	c #418847",
"c@	c #49904D",
"d@	c #306733",
"e@	c #54A559",
"f@	c #223F24",
"g@	c #53A45A",
"h@	c #3B723F",
"i@	c #498F4D",
"j@	c #38753C",
"k@	c #488E4B",
"l@	c #172F19",
"m@	c #529055",
"n@	c #326133",
"o@	c #539758",
"p@	c #438A46",
"q@	c #4A904E",
"r@	c #294D2B",
"s@	c #448948",
"t@	c #4D8F54",
"u@	c #4F9C55",
"v@	c #417245",
"w@	c #4E9353",
"x@	c #235029",
"y@	c #2E6234",
"z@	c #39713F",
"A@	c #37723D",
"B@	c #3E7D45",
"C@	c #2D5730",
"D@	c #3C7941",
"E@	c #244E28",
"F@	c #3E8145",
"G@	c #163619",
"H@	c #418548",
"I@	c #112B12",
"J@	c #408446",
"K@	c #284F2B",
"L@	c #2A6830",
"M@	c #2B6830",
"N@	c #417F46",
"O@	c #254E27",
"P@	c #3F8145",
"Q@	c #2B592E",
"R@	c #0C1C0D",
"S@	c #366A3A",
"T@	c #4D9652",
"U@	c #4A8D4F",
"V@	c #2F5D33",
"W@	c #407E45",
"X@	c #3D7842",
"Y@	c #274E29",
"Z@	c #418246",
"`@	c #346835",
" #	c #2C5C2E",
".#	c #46854B",
"+#	c #1E381F",
"@#	c #458A4B",
"##	c #122D13",
"$#	c #418046",
"%#	c #306034",
"&#	c #336D37",
"*#	c #616162",
"=#	c #020502",
"-#	c #041204",
";#	c #020F03",
">#	c #2E6432",
",#	c #142A15",
"'#	c #C8C9C9",
")#	c #A2A2A2",
"!#	c #6F7070",
"~#	c #979899",
"{#	c #030303",
"]#	c #030405",
"^#	c #202020",
"/#	c #3B3B3B",
"(#	c #1F1F1F",
"_#	c #787878",
":#	c #6B6B6B",
"<#	c #6E6E6E",
"[#	c #707070",
"                                                                                                                                ",
"                                                                                                                                ",
"                                                                                                                                ",
"                                                                                                                                ",
"                                                                                                                                ",
"                                                                                                                                ",
"                                                                                                                                ",
"                                                                                                                                ",
"                                                                                                                                ",
"                                                                                                                                ",
"                                                                                                                                ",
"                                                                                                                                ",
"                                                                                                                                ",
"                                                                                                                                ",
"                                                                                                                                ",
"      .   +         @ # $ %                                                                                                     ",
"      &   * =   - ; > , ' ) !                                                                                                   ",
"      ~ { ] ^         / ( _ :                                                                                                   ",
"            <               [ }         |       1             2 3                                                               ",
"      4 5 6 7   8 9 0 a b c d e f g h i j k l m n o p q r     s t u v w x y z                                                   ",
"      A B C D   E F G   H I J K L M N O P Q R S T U V W X     Y Z `  ...+.@.#.                                                  ",
"                $.  +       %.&.              *.          =.-.          ;.>.,.                                                  ",
"      '.).!.~.{.].^./.                                                                                                          ",
"      (._.:.<.[.}.|.1.                                                                                                          ",
"      i 2.3.4.5.6.7.8.                                                                                                          ",
"            9.0.        a.b.                                                                                                    ",
"          c.d.V e.f.g.    h.i.j.k.l.x m.                                                                                        ",
"      n.o.p.q.r.s.t.u.    v.w.x.y.z.A.B.                                                                                        ",
"          C.  +     D.E.F.+         G.H.                                                                                        ",
"                                                                                                                                ",
"                                                                                                                                ",
"                                                                                                                                ",
"      I.J.K.                                      L.M.              N.O.P.                                                      ",
"      Q.R.S.T.U.V.    W.X.Y.Z.`. +.+++@+#+$+%+    &+*+=+-+;+>+    ,+'+)+!+                                                      ",
"      ~+{+]+^+/+(+  _+:+<+[+}+|+1+2+3+4+5+6+7+    8+8+9+0+a+b+    c+d+e+f+                                                      ",
"      g+h+i+j+k+l+  m+n+o+p+q+r+s+t+u+v+w+x+      y+z+A+B+C+D+      E+F+G+                                                      ",
"      H+I+                  J+              K+L+              M+            N+            O+        P+                          ",
"      Q+R+S+T+U+V+W+c+X+    Y+Z+`+ @.@+@    @@#@$@%@&@*@=@-@;@>@      u+,@'@)@!@~@{@]@^@/@(@_@:@<@~@[@                          ",
"      }@|@~@1@2@3@4@5@6@      7@8@9@0@a@    + b@c@d@e@f@g@h@i@        j@k@l@m@n@o@p@q@r@+ s@s@t@u@v@w@x@                        ",
"      y@z@A@B@C@D@E@F@        G@H@I@J@K@L@M@  N@O@P@Q@R@S@T@U@        V@W@  X@Y@Z@`@ #    .#+#@###$#%#&#            *#+         ",
"                                      =#-#;#              >#,#                                                      '#)#        ",
"                                                                                                                    !#~#        ",
"                                                                                                                    {#]#        ",
"                                                                                                                                ",
"                                                                                                                                ",
"                                                                                                                                ",
"                                                                                                                                ",
"                                                                                                                                ",
"                                                                                                                                ",
"                                                                                                                                ",
"                                                                                                                                ",
"                                                                                                                                ",
"                                                                                                                                ",
"                                                                                                                                ",
"                                                                                                                                ",
"                                                                                                                                ",
"                                                                                                                                ",
"                                                                                                                                ",
"                                                                                                                                ",
"                                                                                                                      ^#/#(#    ",
"                                                                                                                      _#:#_#    ",
"                                                                                                                      <#<#[#    ",
"                                                                                                                                ",
"                                                                                                                                "};
