/* XPM */
static char * exit_xpm[] = {
"64 64 314 2",
"  	c #FFFFFF",
". 	c #FEFEFE",
"+ 	c #010101",
"@ 	c #010100",
"# 	c #7A706E",
"$ 	c #7B716F",
"% 	c #7B706F",
"& 	c #7C716F",
"* 	c #7C7170",
"= 	c #7B7170",
"- 	c #020201",
"; 	c #7B706E",
"> 	c #595351",
", 	c #4F4947",
"' 	c #4F4847",
") 	c #4E4947",
"! 	c #4F4948",
"~ 	c #504948",
"{ 	c #504A49",
"] 	c #504A48",
"^ 	c #5B5453",
"/ 	c #7C7270",
"( 	c #FFFFFE",
"_ 	c #393533",
": 	c #5A5250",
"< 	c #625A58",
"[ 	c #615958",
"} 	c #635A59",
"| 	c #625A59",
"1 	c #595250",
"2 	c #393534",
"3 	c #393433",
"4 	c #716765",
"5 	c #706765",
"6 	c #3A3534",
"7 	c #020202",
"8 	c #7D7270",
"9 	c #3A3635",
"0 	c #7C706F",
"a 	c #030302",
"b 	c #010201",
"c 	c #7C726F",
"d 	c #393634",
"e 	c #3A3634",
"f 	c #A2A192",
"g 	c #A1A190",
"h 	c #A1A191",
"i 	c #A1A090",
"j 	c #ABAB99",
"k 	c #E0E0CA",
"l 	c #E4E4CC",
"m 	c #BEBDA8",
"n 	c #A2A191",
"o 	c #A0A090",
"p 	c #A1A091",
"q 	c #9F9E90",
"r 	c #706665",
"s 	c #B1AF9E",
"t 	c #B2B09E",
"u 	c #B1B09E",
"v 	c #B2B19F",
"w 	c #B8B7A5",
"x 	c #F2F1D4",
"y 	c #FDFBDD",
"z 	c #E0DFC9",
"A 	c #B1AF9D",
"B 	c #B0AF9D",
"C 	c #B1AE9D",
"D 	c #B1B09D",
"E 	c #AEAD9C",
"F 	c #020101",
"G 	c #716766",
"H 	c #F3F2D9",
"I 	c #FDFBE1",
"J 	c #DFDEC3",
"K 	c #B0AE9D",
"L 	c #B0AF9E",
"M 	c #AFAD9D",
"N 	c #FEFFFE",
"O 	c #7D7371",
"P 	c #B1B09F",
"Q 	c #B4B3A1",
"R 	c #F1F1D4",
"S 	c #FCFCDD",
"T 	c #E1E0C8",
"U 	c #B0AF9C",
"V 	c #7B726F",
"W 	c #B2B1A0",
"X 	c #B4B4A0",
"Y 	c #EEEED2",
"Z 	c #FCFBE0",
"` 	c #E2E2C7",
" .	c #B0B09D",
"..	c #B1B19F",
"+.	c #B0AE9C",
"@.	c #AEAD9B",
"#.	c #7D7271",
"$.	c #B7B6A4",
"%.	c #EDEDD4",
"&.	c #FCFBDD",
"*.	c #E1E0C7",
"=.	c #ADAC9A",
"-.	c #9B9B8D",
";.	c #7B7C73",
">.	c #62635A",
",.	c #76756A",
"'.	c #A7A593",
").	c #8A897D",
"!.	c #7B7B72",
"~.	c #7A7B72",
"{.	c #939284",
"].	c #AAA796",
"^.	c #FEFEFD",
"/.	c #E9E8CD",
"(.	c #FCFADF",
"_.	c #E4E2CB",
":.	c #9A998A",
"<.	c #A0A091",
"[.	c #FDFCE4",
"}.	c #CDCCB6",
"|.	c #757367",
"1.	c #ABA898",
"2.	c #89887C",
"3.	c #C8C8B4",
"4.	c #EDECD3",
"5.	c #EBE9D3",
"6.	c #939183",
"7.	c #ADAC9B",
"8.	c #AFAC9C",
"9.	c #716866",
"0.	c #FAF9DF",
"a.	c #E4E3C8",
"b.	c #ADAB99",
"c.	c #999789",
"d.	c #99998D",
"e.	c #E6E5CA",
"f.	c #F0EFD5",
"g.	c #CDCDBA",
"h.	c #777468",
"i.	c #838174",
"j.	c #BFBFAB",
"k.	c #A0A08F",
"l.	c #43423C",
"m.	c #363631",
"n.	c #CAC9B4",
"o.	c #A8A898",
"p.	c #979687",
"q.	c #AFAD9C",
"r.	c #E1E1C8",
"s.	c #949385",
"t.	c #7E7E74",
"u.	c #D3D3BB",
"v.	c #20201D",
"w.	c #A8A894",
"x.	c #CDCDB7",
"y.	c #767468",
"z.	c #8D8B7D",
"A.	c #54544A",
"B.	c #54534A",
"C.	c #979686",
"D.	c #747367",
"E.	c #CACAB5",
"F.	c #A8A899",
"G.	c #959486",
"H.	c #AFAE9D",
"I.	c #B2B09F",
"J.	c #B1B19E",
"K.	c #65655E",
"L.	c #EEEED6",
"M.	c #41413C",
"N.	c #808073",
"O.	c #A9A999",
"P.	c #CDCDB6",
"Q.	c #9E9D8D",
"R.	c #8E8D80",
"S.	c #BABAA6",
"T.	c #9B9B8B",
"U.	c #9D9C8C",
"V.	c #B2B19E",
"W.	c #B2AF9F",
"X.	c #65655D",
"Y.	c #F1F1D8",
"Z.	c #838375",
"`.	c #838275",
" +	c #C0C0AA",
".+	c #DBDBC6",
"++	c #8C8B7D",
"@+	c #A3A191",
"#+	c #A09E8E",
"$+	c #858475",
"%+	c #C4C3B0",
"&+	c #A4A495",
"*+	c #959283",
"=+	c #706766",
"-+	c #B3B2A0",
";+	c #5A5A52",
">+	c #E5E4CB",
",+	c #E6E5D0",
"'+	c #E5E4CE",
")+	c #EFEED4",
"!+	c #F5F4DE",
"~+	c #B7B6A6",
"{+	c #A7A493",
"]+	c #8C8B7E",
"^+	c #A3A291",
"/+	c #969484",
"(+	c #747369",
"_+	c #76756C",
":+	c #747368",
"<+	c #66655D",
"[+	c #A8A897",
"}+	c #CFCFB8",
"|+	c #4D4C45",
"1+	c #8C8A7D",
"2+	c #9D9C8D",
"3+	c #BCBCA7",
"4+	c #868578",
"5+	c #727064",
"6+	c #8C8A7A",
"7+	c #8D8C7E",
"8+	c #A8A695",
"9+	c #B2AF9D",
"0+	c #CFCEBA",
"a+	c #747266",
"b+	c #817F73",
"c+	c #CBCAB8",
"d+	c #D9D8C2",
"e+	c #BBBAA6",
"f+	c #BCBCAB",
"g+	c #BABAA8",
"h+	c #7A7A6C",
"i+	c #9C9A8C",
"j+	c #B2AF9E",
"k+	c #9E9C8D",
"l+	c #858477",
"m+	c #A3A392",
"n+	c #757366",
"o+	c #807E71",
"p+	c #A1A193",
"q+	c #C9C9B7",
"r+	c #CAC9B6",
"s+	c #CACAB9",
"t+	c #858578",
"u+	c #ADAB9B",
"v+	c #A9A798",
"w+	c #9E9B8C",
"x+	c #A19F90",
"y+	c #8E8C7E",
"z+	c #8E8C7F",
"A+	c #8D8B7E",
"B+	c #8C8A7C",
"C+	c #A7A595",
"D+	c #B2AE9E",
"E+	c #AEAB9A",
"F+	c #78766B",
"G+	c #767367",
"H+	c #767469",
"I+	c #757368",
"J+	c #757468",
"K+	c #747267",
"L+	c #757266",
"M+	c #766D6B",
"N+	c #514A49",
"O+	c #514A48",
"P+	c #514948",
"Q+	c #504947",
"R+	c #756B69",
"S+	c #706664",
"T+	c #7E7271",
"U+	c #6F6664",
"V+	c #726866",
"W+	c #7B716E",
"X+	c #615856",
"Y+	c #6D6563",
"Z+	c #7E7371",
"`+	c #615957",
" @	c #84650D",
".@	c #A4811F",
"+@	c #7D7170",
"@@	c #6F560D",
"#@	c #7B5E0B",
"$@	c #7B600C",
"%@	c #7D6113",
"&@	c #9D8137",
"*@	c #CFA421",
"=@	c #E5B21C",
"-@	c #E5B41D",
";@	c #E4B324",
">@	c #967A33",
",@	c #534C4A",
"'@	c #726967",
")@	c #655C5B",
"!@	c #504847",
"~@	c #403B3A",
"{@	c #C59D33",
"]@	c #7D7370",
"^@	c #7E7372",
"/@	c #7C7271",
"(@	c #615A58",
"_@	c #A48220",
":@	c #A2822A",
"<@	c #3B3635",
"[@	c #615857",
"}@	c #B6901F",
"|@	c #DFAE29",
"1@	c #524B49",
"2@	c #6A6260",
"3@	c #3C3736",
"4@	c #5C5452",
"5@	c #010102",
"6@	c #7E7472",
"7@	c #3A3535",
"8@	c #7B7270",
"9@	c #726765",
"                  . . . + + + + + + + + + + + + + + + + @ + + + + + + + + + + + + + + + + + + + + + + + . .                     ",
"                  . . . + # $ % % $ % $ $ $ $ $ $ $ & $ $ $ $ $ & * $ $ $ $ $ $ $ % $ $ $ $ $ $ $ = = + . .                     ",
"                  . . . - & $ % ; % % % ; ; % ; ; $ $ $ $ $ $ $ & $ & $ $ $ $ $ $ $ $ $ $ $ $ $ $ $ & + .                       ",
"                    . . - & * > , , , , ' , , ) , ! , ! ! , ! ~ { ~ ~ ~ ~ ~ ! ] ] ~ ~ ! ! ! , ! ^ & / + . (                     ",
"                    . . - / / _ : < < < < < < < [ < < < < < < < } } < | | < | } < < < < < < < 1 2 $ & - .                       ",
"                    . . - / / 3 4 & & & & $ $ $ $ & $ $ & & & & / / / / / / / / / / & $ & $ / 5 6 / / 7 .                       ",
"                    . . - * 8 3 4 & & & & $ $ $ & & & $ & & & / / * / / & $ & & & $ % $ $ $ = 5 9 / $ + .                       ",
"                    . . - * 8 3 4 & & & & $ & & & & & / & & & / / / / / & & / & & & $ $ $ % * 5 2 & * + .                       ",
"                    . . - = / 3 4 & 0 & $ / & & / / / $ $ 8 / $ / / / / / / / / * $ $ $ $ $ $ 5 6 & * - .                       ",
"                    . . - / / 2 4 / / 5 a + + + + + - b + - + + + + + + + + + + + + + 7 5 c $ 5 d & / - .                       ",
"                    . . - / / e 4 / / 5 + f g h f i j k l m n f i i o i h h p i i i q + 4 $ * 5 6 / $ - .                       ",
"                    . . - / 8 6 4 / / r + s t u v w x y z u A B B B B B B C C D A A E + 4 & * 5 2 & & F .                       ",
"                    . . - / 8 _ G / * 4 + u u t D H I J u v A K C L B B C C C A s C M + 4 * * 5 6 & & + .                       ",
"                    N . F / O 2 G / / 5 + P t Q R S T v U B s B A A C K A C A A A A E + 4 & V 5 6 $ $ - .                       ",
"                    . . - / O e 4 / / 5 + W X Y Z `  .....+.C s +.+.s s K u A A u u @.+ 4 $ $ 5 6 / c - .                       ",
"                    . . - / #.9 4 / / 4 @ $.%.&.*.v D =.-.;.>.,.u '.).!.~.{.].s u A M + 4 $ $ 5 e $ & - ^.                      ",
"                    . . - * / 6 4 / * 5 + /.(._.B A E :.<.[.}.|.1.2.3.4.5. .6.7.C A 8.+ 4 $ % 5 e / & + .                       ",
"                    . . - / 8 e 9./ / 4 - 0.a.t u b.c.d.e.f.g.h.i.j.k.l.m.n.o.p.s s q.+ 5 $ & 5 9 / * + .                       ",
"                    N . + / O 2 4 / / 4 + r.v A v s.t.u.v.w.x.y.z.A.B.C.D.E.F.G.A u H.+ 4 $ $ 5 6 / / 7 .                       ",
"                    . ^.+ / 8 2 4 / / G + I.t J.u K.L.M.N.O.P.D.u u A Q.R.S.T.U.V.u q.+ 5 $ $ r e / / b .                       ",
"                    . . 7 * #.2 4 / / 4 + P u u W.X.Y.Z.`. +.+++@+t #+$+%+&+*+A u u E + 5 $ $ =+9 / & + .     .                 ",
"                    ( . - / 8 6 9./ * 4 + P u u -+;+>+,+'+)+!+~+z.{+]+%+^+/+s +.C A E + 4 $ % 5 9 * * + .                       ",
"                      . + / 8 2 G / / 9.+ I.u D s (+_+:+<+[+}+|+1+2+3+4+5+6+7+8+C C q.+ 4 $ $ 5 9 / & 7 .                       ",
"                      . - / O e G / / 5 + P D u 9+t I.t 2+[+0+a+b+c+d+e+f+g+h+i+C A E + 5 $ $ 5 9 / / - .                       ",
"                    . . - 8 O e 4 / / 5 + s t j+j+u j+t k+l+m+n+o+p+q+r+r+s+t+p.s A u++ 4 $ $ 5 e / / b .                       ",
"                    . . - / #.9 4 / * r + t j+j+t u t I.v+z.z.w+x+1+y+z+A+B+y+C++.D+E++ 4 $ % 5 e / / + .     .                 ",
"                    . . - 8 O e 4 / / r 7 F+G+y.H+H+H+H+G+|.|.n+I+|.J+|.|.K+L+H+a+|.I++ r $ $ 5 9 #./ - .                       ",
"                    ( . + / O d G / / M+N+' N+N+N+N+N+O+] ] P+] ] ] ~ ~ ~ ] ~ Q+O+~ , N+R+$ $ 5 e / / - .                       ",
"                    . . F O O 6 G / / / $ / / / / / / / / / / / / / / / / / / & & & $ $ / $ $ 5 6 / / - .                       ",
"                    . . + #.O e 4 / / & * / / / / / / / / / / / / / / / & / * & & / $ * & * % S+6 / / + .                       ",
"                    . . - 8 T+6 4 / / / / / / / / / / * / / / / * / / / / / & * * & $ & $ * & U+9 / * + .             .         ",
"                      . - O O e V+/ / / / / / / / / / / / / / / / / / / / / / & & $ $ $ % % $ =+2 / O b .                       ",
"                    . . + O O e V+/ / / / / / / / / / / / / / / / / / / / / / & $ $ W+9.} X+Y+=+2 / O 7 .                       ",
"                      . - O Z+6 G / / / / / / / / / / / / / / / / / / / / / / * & # / `+ @.@~ S+9 O / - .                       ",
"                    . . - 8 Z+6 G 8 8 +@/ / / * * / / / / / / #.* / / / / / / / N+@@#@$@%@&@~ r 9 / #.+ .                       ",
"                      . + #.Z+e 9.8 8 / / / / / / / 8 / / / / 8 / / / / 8 / / / ~ *@=@-@;@>@,@'@_ * #.F .                       ",
"                      . - Z+Z+e V+8 8 8 / / / / / 8 8 / / / 8 / / / / / / / / / )@!@N+~@ @{@O+9.e 8 ]@- .                       ",
"                      . + O ^@6 9.8 / 8 / / / / / #./ / / /@/ / / / / / / / / / / * / (@_@:@O+S+<@O / 7 .                       ",
"                    . . - Z+^@9 9./ #.8 / / / / #./ / / / 8 / / / * / / / / / / / / * [@}@|@1@G e 8 8 + .                       ",
"                    . . 7 Z+^@e 9.8 #.8 O / / 8 8 / 8 8 / 8 / / / / / / / / / 8 / / / 2@<@3@4@G e O #.+ .                       ",
"                      . b O ^@9 9.8 / / 8 / / / / / / / / 8 / / / / / / / / / / / / / / $ & * r 6 8 O 7 ^.                      ",
"                      . + O O e G 8 / / / / / / / / / / / / / / / / / / / / / / / / / / / / / 5 2 8 8 7 .                       ",
"                    . . - O Z+e 9./ 8 / / / / / / / / / / / / / / / / / / & / / / / / / / / / r e O 8 - .                       ",
"                    . . b O Z+9 9.8 8 / / / / * / / / / / / / / / * / / / * / / / / * / / / * r 9 O 8 + .                       ",
"                    . . - O Z+e V+8 8 8 8 8 / / 8 / / / / / / / * / / / / / / / / * / / / * / 5 <@O #.5@.                       ",
"                      . - O Z+e V+8 O 8 / / / / 8 / * / / / / / / / / / / / / / / / / / / / / 5 9 O 8 - .                       ",
"                      . + O 6@e G / / / / / / / / / / / / / / / / / / / / / / / / / / / / / / G 7@O 8 7 .                       ",
"                    . . - O 6@9 4 / 8 8 / / / / / / / / / / / / / / / & 8@/ / / / & / / / / / 4 <@O #.7 .                       ",
"                    . . + #.Z+6 G 8 * * / / * * / / / * / / / / * / / / * * / / / * * / / / * 5 9 O #.F .     .                 ",
"                    . . + #.Z+e 9@8 / / 8 / * / 8 / / / / / / / / / / / / / / / / / / / / / / 4 6 #.8 - .                       ",
"                    ( . - 8 O 9 4 8 / / / / / / / / / / / / / / / / / / / / * / / / / * / / / 5 6 O O 7 .                       ",
"                      . - 8 O e G 8 / / / / / / / / / / / / / / / / / / / / / & / / / / / / / 4 6 O O - .                       ",
"                    . . - / O 9 G / * * / / / / * / / / / / / / / * / / / * * / / / / / / / * G 9 O O F .                       ",
"                      . - * #.6 4 / * / / / / * / / / * / / / * +@8 / / / / / / / * / / / * / G 9 #.O F .                       ",
"                      . - #.O 6 G 8 / / / / / / / / / / / / / / / /@/ / 8 / / / / / / / / / / 5 6 O O - .                       ",
"                    . . - O O 6 4 / / / / / / / / / / / / / / / / / / / / / / / / / / & * / / 4 e O O - .                       ",
"                    . . + / O 6 9.8 / / / / / / * / / / / / / / / / / / / / / / / / / & / / / G 9 O O + .                       ",
"                    . . b #.O 6 9./ / / / / / * / / / / / / / / / / / / / * / / / / * / / * * 4 <@O #.+ .                       ",
"                    . . + #.O 6 9./ / / / / / / / / / / / / / / / / / / / / / / / / / / / / / 9.<@O #.7 .                       ",
"                      . + / O 2 G / / / / / / / / / / / / / 8 / / / / / / / / / / / / / / / / G e O O - .                       ",
"                    N . b / O 2 4 8 / / * / / / / / / / / / / / / / / / / / / / / / / / / / / G e O O - .                       ",
"                    . . + O O 2 4 / 8 * /@/ / / 8 8 / / / / / 8 / / 8 / / / / / / / / / / / / G e O O + .                       ",
"                    . . + / O e G / / / / / / / / / / / / / / / / / / / / / / / / / / / / / / G 9 #.O + .                       ",
"                    . . + #.O 6 9.O O #./ /@8 8 O 8 8 8 8 8 / #.#./ / / / / / / / / / / / / / 9.6 #.8 + (                       "};
