/* XPM */
static char * floor_xpm[] = {
"64 64 231 2",
"  	c #153C5B",
". 	c #173D5B",
"+ 	c #163D5C",
"@ 	c #163C5A",
"# 	c #163B59",
"$ 	c #1C4867",
"% 	c #1B4867",
"& 	c #1B4666",
"* 	c #194363",
"= 	c #1A4363",
"- 	c #1A4362",
"; 	c #194260",
"> 	c #19415F",
", 	c #153B58",
"' 	c #143956",
") 	c #194463",
"! 	c #1B4767",
"~ 	c #153956",
"{ 	c #153A57",
"] 	c #153C59",
"^ 	c #1A4565",
"/ 	c #1B4766",
"( 	c #1A4766",
"_ 	c #153A56",
": 	c #163B58",
"< 	c #18405F",
"[ 	c #163C59",
"} 	c #194362",
"| 	c #194464",
"1 	c #184160",
"2 	c #173C59",
"3 	c #163A57",
"4 	c #143955",
"5 	c #153D5B",
"6 	c #163E5E",
"7 	c #163D5B",
"8 	c #163C5B",
"9 	c #1A4666",
"0 	c #184363",
"a 	c #184161",
"b 	c #18415F",
"c 	c #153957",
"d 	c #1A4667",
"e 	c #143A57",
"f 	c #143A56",
"g 	c #19405E",
"h 	c #194261",
"i 	c #153A58",
"j 	c #174161",
"k 	c #184261",
"l 	c #1A4665",
"m 	c #163E5D",
"n 	c #163E5C",
"o 	c #143957",
"p 	c #133855",
"q 	c #163F5D",
"r 	c #173F5E",
"s 	c #16405F",
"t 	c #174160",
"u 	c #163F5C",
"v 	c #17405F",
"w 	c #1A4564",
"x 	c #133856",
"y 	c #143856",
"z 	c #1A4465",
"A 	c #1C4868",
"B 	c #184463",
"C 	c #1A4464",
"D 	c #1A4567",
"E 	c #194565",
"F 	c #194465",
"G 	c #143855",
"H 	c #1B4667",
"I 	c #1C4767",
"J 	c #17405E",
"K 	c #18405E",
"L 	c #194364",
"M 	c #1C4869",
"N 	c #184262",
"O 	c #194564",
"P 	c #1A4566",
"Q 	c #1B4668",
"R 	c #183F5E",
"S 	c #1B4868",
"T 	c #163D5A",
"U 	c #194262",
"V 	c #1A4463",
"W 	c #153B5A",
"X 	c #153B59",
"Y 	c #153C5A",
"Z 	c #163E5B",
"` 	c #173F5D",
" .	c #194160",
"..	c #1C4968",
"+.	c #1C4969",
"@.	c #184464",
"#.	c #163B5A",
"$.	c #173E5D",
"%.	c #163A58",
"&.	c #194361",
"*.	c #184162",
"=.	c #194466",
"-.	c #194566",
";.	c #1B4869",
">.	c #184260",
",.	c #1B4768",
"'.	c #18415E",
").	c #174263",
"!.	c #1C496A",
"~.	c #153A59",
"{.	c #143B5A",
"].	c #1C4768",
"^.	c #143A58",
"/.	c #153D5C",
"(.	c #174060",
"_.	c #143B59",
":.	c #17405D",
"<.	c #173E5C",
"[.	c #133955",
"}.	c #184361",
"|.	c #1A4768",
"1.	c #153C5C",
"2.	c #163D5D",
"3.	c #173B58",
"4.	c #163C5C",
"5.	c #194665",
"6.	c #194567",
"7.	c #133958",
"8.	c #123958",
"9.	c #133858",
"0.	c #143A59",
"a.	c #163D5E",
"b.	c #184060",
"c.	c #173F5F",
"d.	c #184263",
"e.	c #184362",
"f.	c #163F5E",
"g.	c #133857",
"h.	c #143959",
"i.	c #133854",
"j.	c #173E5B",
"k.	c #1A4361",
"l.	c #194666",
"m.	c #194667",
"n.	c #153B57",
"o.	c #184465",
"p.	c #143857",
"q.	c #153958",
"r.	c #163F5F",
"s.	c #163B57",
"t.	c #153856",
"u.	c #173C5A",
"v.	c #1A4364",
"w.	c #173D5C",
"x.	c #173E5F",
"y.	c #194462",
"z.	c #194263",
"A.	c #143C5B",
"B.	c #183F60",
"C.	c #173F5C",
"D.	c #133956",
"E.	c #133755",
"F.	c #183F5F",
"G.	c #1A4767",
"H.	c #153E5D",
"I.	c #163957",
"J.	c #1D4A6B",
"K.	c #1D4A6A",
"L.	c #133A58",
"M.	c #194563",
"N.	c #184564",
"O.	c #17415F",
"P.	c #1A4868",
"Q.	c #143D5C",
"R.	c #153E5E",
"S.	c #153D5D",
"T.	c #1A4668",
"U.	c #183F5D",
"V.	c #173E5E",
"W.	c #143B5B",
"X.	c #133A59",
"Y.	c #173D5A",
"Z.	c #143C5A",
"`.	c #174262",
" +	c #143B58",
".+	c #173B59",
"++	c #1B4968",
"@+	c #1B4565",
"#+	c #153F5D",
"$+	c #133957",
"%+	c #1C4A6B",
"&+	c #174162",
"*+	c #153B5B",
"=+	c #174261",
"-+	c #1B4969",
";+	c #1B4665",
">+	c #153D5A",
",+	c #183E5D",
"'+	c #163C58",
")+	c #183E5C",
"!+	c #183D5A",
"~+	c #194161",
"{+	c #1A4664",
"]+	c #194360",
"^+	c #184364",
"/+	c #163B5B",
"(+	c #133754",
"_+	c #183C5A",
":+	c #153E5C",
"<+	c #1C4A69",
"[+	c #174362",
"}+	c #174363",
"|+	c #194765",
"1+	c #143958",
"2+	c #184365",
"3+	c #143B57",
"4+	c #1D4868",
"5+	c #1D496A",
"6+	c #18425F",
"7+	c #2D4F6B",
"8+	c #456078",
"9+	c #2C4D6A",
"0+	c #164060",
"a+	c #8399A9",
"b+	c #768B9D",
"c+	c #8297A8",
"d+	c #798FA1",
"e+	c #788EA0",
"f+	c #7A8FA0",
"g+	c #174264",
"h+	c #1E4B6B",
"    . + + + . @ # $ % & * = - ; ; > , ' ' ' ) ! ! & ' ' ~ ' ' { { { { { ] ^ & & / ( ! > _ : < < [ ' ' ' } | ^ ! % 1   @ 2 3 _ 4 ",
"5 + + + 6 + 7 8 @ $ % 9 0 * * a b 1 , ' ' c ) 9 d 9 e ' f { { { { { { { ] ^ & & 9 9 9 g { 2 b b @ ' ' ' h | ^ % % a +   @ i ' ' ",
"j a k 1 a j j j j ! ! l 0 0 0 j m n o p ' 4 n n q m e ' , r r r s 1 1 1 t | | t u n n b v a ) w n x p y b } z A % B r r r ] ' x ",
"| z ^ | C | | ^ ^ d D ^ | E F j     c G x G y ' p p i ~ [ } = * * & H & | F | n ' G ' k ^ l ! I J ' ' ' K a L M A w N a a @ ' G ",
"F F E | C | O ^ P Q d P E ^ | j     e ' ' ' x 4 ' p : { [ } = * | H H H | | | + 4 G G 1 ^ ^ ! I R ' ' 4 K a * S A z a a a T ' G ",
"N U * C ^ C | V ) | L ) l l ^ t W W X X X X Y Y   Y @ [ Z a j k k ) ) ) } ) | ` ] ] ] 1 k V l l J X , , J J k / / } v v < 7 ] Y ",
"p ' n | | | 1 : : : 3  .......- ~ { k | F E S S +.A @.^ L : _ { { { { ~ #.C C 9 ! ! H K 4 : $.$.v a 1 1 7 { @ a b T ~ ' ' 1 ! ! ",
"G ' m | F |  .: : %.i K ......&.~ { *.F =.-.;.+.M % F ^ * i { { c { ' ' # C ^ H ( ( H R p { + $.v U U a 7 X 8 a 1 T ' ~ ~ >.! ,.",
"G ' 6 | =.F  .: %.# X '.+.+.+.} c c ).F -.P ;.+.!.A F ^ 0 ~.i i c ' ' ' # | ^ H ,.,.( K y { + + v U U a 7 {.@ 1 1 @ ' ' ' >.].! ",
"' ' m ^ ^ E k : : @ X  .+...+.&.{ { N E F E ;.+.!.A | E B W , ^.^._ { _ ] O ^ H ! ! ! b G , m + < a a 1 /.: 7 >.b T ~ ' 4 >./ ( ",
"s v N l l P a ^.{ m m } ! ,.! k c _ m (.v v v < J K v v J #.i i _.X X ] ] ` ` ` :.q ` 1 1 ; m n + Z <.<.1 1 B 9 ^ q ' [.' q }.}.",
"=.=.d |.9 P a i { 1 1 } 9 9 D 1 3 { W       ^.c c c m 1.  %.~.X W   + 2.#.: 3._ ' G y h ! & $.$.4._.X {.* d & +.+.< _ ~ ' 8 r q ",
"=.-.-.d 5.P N Y W <.<.1 D 6.P N @ @     Y W 7.8.8.9.Y 0.W i 0.0.%.8 2.a.  @ @ e G G G 1 | ^ b.c.+   {.X t d.e.,.! a 8 8 Y m f.q ",
"=.=.D D 5.d P * = { _ ` P P D -.F F q   {.{.8.7.8.g.o p ' ~.i h., + 2.a.m h h T G p i.R U V | | c.{.X , # : j.k.k.C =.F | k c.f.",
"F F -.E l.m.E * 0 n.{ n E -.E o.F | q   Y {.7.o g.p.' 4 ' i q.0.X /.+ 2.q } h T [.i.i.` N } B F c.W , : @ : T >.} L E F | j r.f.",
"    f.v v v v + + * * N v v v m # : N L L * X ' ' ' C ^ 0 ~ ' ' T H ! I ^ = * U 1 1 1 <   $.{ { 1 9 & 9 $ % w s.: { ' ' ' W     ",
"    f.v (.(.v + + L 0 k (.v r + { { d.| | C X t.' ' ) P U { ~ ' u.].I I z v.C * a a a < /.w.3 { k & 9 9 S % C 3.3 ~ ' ' ' W 1.  ",
"  1.m r.c.c.c.+ + * * k v c.x.7 { { U C | * #.' ' c C ^ ^ 1 1 < 1 y.) * k C C z.a a a < 1.7 { { a 9 l.9 S ].z s.s.~ ' ' ' W 1.A.",
"A.1.f.r.r.r.r + + * * a c.x.c.7 { { N | | ) ] _ ' 4 ) ^ ^ ^ ^ 9 O < B.b.v = | * h N N < 1.7 _ { 1 9 9 9 S ! w s.s.c ' 4 4 {.  W ",
"` r K J r ` r $.<.a t < < < R + : : w & 9 9 :.C.C.<.} * ) & H ! E  . .> >.& H ^ V ) V h n C.: : < C | ) w w ) <.<.@ : : i + m m ",
"v b r : : 3.[ : : o ' i   /.8 X _ _ ) d / ! S ! ! A D.E.@ P l l | 1 < K a A A / & & P } + 7 ' ~ { { ~ { c ' 8 P P F.Y _.X r h >.",
"(.1 r X W : W X X c ~ ^.  1.  W ^.i 0 G.G.! ;.S S S e G @ P 9 P F 1 < b 1 A ..G.9 d P h H.+ I.{ { { i c e 7.  P ^ c.{.{.{.r.N N ",
"d ,.! D D P >.i 0.K J + i i : e { { ) G.( ( d.k a 1 | 9 ! l.5.P F 1 v B.b ^ l P 9 P l < ' u.9 9 ,.,.G.G.Y o i + 8 W { { _ C J.K.",
"G.( ,.-.-.E 0 ^.L.j v H.^.{ n., { _ M.( d G.e.1 a a ) l G.l 5.l.N.b (.b.O.E P P & 9 9 K 4 @ G.9 ,.S P.|.Q.' e   2 %.{ { { V J.J.",
"@.| } ` q ` (.e.} s c.H.1.  /.R.v v v (.(.t f./.S.S.u ` b d 9 d | /.] Y /.* * E ( T.P U.' [ ^ -.P P P | Q.0._.+ 4.f.v (.(.| H d ",
"a a ` { { { ` !.J.(.(.v V.V.v a ^ E 2.{.    {.W.{.{.i ~ . & & & L {.X.{ {.U U P G.,.d > 4 Y.P P | * = = /.{.  $.$.a C F F | C | ",
"r v `   @ 1.e.!.+.N a v c.c.v N C | + _._._._.Y   Z.X { Y.C C C N   W.W W < < L ^ l G.h , <.^ F U 1 1 1 r + 2.w.+ a ^ P ^ ) N `.",
"p 4 m = } * 9 +.A @.) k < F.< O.h a  +p p p _.    Y . 2 . [ : : Y.b 1 1 ` ' ' + b.b.b w % 9 b 1 T { _ ' = 9 0 _ ' a P ^ ^ N v J ",
"x ' /.0 | | E S !.E | N J O.O.t N a , p p p {.      $.. 8 2 .+2 7 1  .a ` ' ' 7 1 b b ^ ++9 J < @ ' ' ' } / } _ ' a ^ ^ E N c.r ",
"x ' {  +, X f.! S S H 9 O | | E ! ! r + <.$.N * 0 U 1 h N 1  .h N P & 9 U ~.~.b.) V v.b  +@ # # X X W W @ , X w.+ Y , X X ^.o o ",
"o { : ' ' ' f.|.G.;.,.9 ^ P P 9 !.+.b.v b.v L z ^ C k = - U * * L H ! ! U #.@ N F z @+g p %.: 3 X 1.    , ~ { R r X ' ' ' p ' G ",
"Y Y , G y G #+|.G.;.;.5.v < 1 e.w ) k t 1 1 | E ^ | `.* N a h k N | ) ) k < < b.(.< J K m <., , W     Y e ' { m ` ] p p i.p p p ",
"t 1 $.~ _ _ q G.S !.S * ~ _ s.  J v `.e.U U F E ^ ^ N 0 e.b b 1 1 a a a 1 9 & C.{ _ ~ v F )     1.  + /., ~ i V.6 W 4 4 p $+' p ",
"a a ` { c o s S ;.%+;.}.{ _ { Y (.(.&+N d.U E ^ D ^ k * N (.t a (.(.(.1 1 & & ` _ ' ' (.F |   Y   + + 1.~.{ i V.x.*+' G G g.' ' ",
"a a V.{ c ~ r.;.;.!...} { { 3 @ (.(.N `.).N F D ^ ^ =+* z.(.(.(.c.(.(.b.O.H P ` ~ y c (.| L 1.    + +   X { i 6 r.*+' ' G y o ' ",
"a a r { ^.{ s ;.;.+.+.0 { 3 3   1 (.`.N `.N =.P ^ ^ k 0 N 1 (.(.c.(.(.(.< ! & R ~ ~ ' t F L   8   + +   , { i V.6 W p.~ ' o c c ",
"L * U ` ` ` e.!.J.-+S ^ ` <.` v U U | ^ l ^ k K K < | ;+O >+Y Y ] 7 7 7 ` ! ! ` ' 4 f O.| } , X X X , X <.,+j.7 Y { { { _ Y V.m ",
"0 | * 1 1 k E !.!.P.G.| J t 1 &+N 0 9 ( / & m '+2 2 ) ! ) ' p p [.{ { _ T & ! $.4 4 4 v e.k _ { ~ ' 4 ' r h K _ { { _ ' ' m a a ",
"O.t k N N k -.+.;.9 P U b 1 a j U L 9 d ( & f.. w.Y.}.y.1 p p p p ~ ' ~ [ ^ w q e $+o a B }., , ^.] Y X $.< $.Y @ Y ] X _.2.r f.",
"p y q G.S ( l.H H )+!+R 1 a a a = * P ( ( H Q P P P i { c p p p G ~ _ ~ # ; ; ~+1 a a l % ! r + E ( ( G.+ ~ . Q ( 9 P P z + ' ' ",
"p ' f.,.;.;.G.l.9 <.2 )+1 1 1 j `.`.9 ( G.d d -.E ^ i _ { G p G G { _ ~ , a 1 b 1 1 1 {+S ! R r | |.|.G.n { . 9 9 9 -.E F f.$+o ",
"-.E E `.`.N (.    f ' 7 E ^ E v ~ ' ) ( ( ( , [.p i.^ ! 9 F | | B | | | O.{ ' v ^ O | C h h >.]+T { i ' } ! ) @ @ : s.: n.k 9 l.",
"m.5.^ a `.N (./.  ' p.+ E ^ ^ v 4 ' B 9 d & ] p p p w ! & F F o.^+^+| | t 4 ' v E F F * 1 U U  .5 e ' ' * & ) @ @ # { { { k |.( ",
"m.5.C a a a v /.  ' E.+ | | F (.4 ' | 9 d 9 W p p p O 9 P ^+^+^+0 ^+| ^+v c ' t E F @.0 a h h h /.' ~ ~ * E B /+X { { i i N ( G.",
"v 1 a 1 1 1 O +.;.U 1 7 G ' ' 5 & 5.0 N U h ^.E.E.(+o t.' 4 ' p G ' ' ' i L | 7 y t.y _ ~ _+C P P F P ^ Y ~ @ P ^ P P ^ E 0 e.N ",
"(.1 k 1 a 1 P +...U a n y p 4 :+l 5.0 } * U i p p p o p 4 p p p i.' p G , V | + y p 4 { ' Y.O ^ D & d ^ 5 o Y P 9 d D D ^ ^+N N ",
"(.a a a a 1 ^ !.<+e.a m p p 4 u 5.l.@.[+N N ^.i.p p ' i.G p p p p p p p , | v.w.4 p p { ' Y.@.F P 9 d ^   o ] d P P P E ^ ^+`.N ",
"1 a a 1 1 1 E +.!.U a m G p ' m 9 P ^+* U U , p G p e p G G p p p p p p , * C 7 4 p p { ' T F E P d D ^ Y '   P H P P P P L N `.",
"0 * ) } } } ) | w | * r o o o 8 k j d.L * e.6 + + + + + 2.n 7 /.+ + 7 7 2.z.* v n $.n [ G # ^+F F F F L v $.v F F E ^ E E 0 0 }+",
"S G.% ( |.9 * 2.q l 5.`.      5 2 u.0 | ^ F E ^ P P * ^ ^ ^ F F | | | v.N U U C & 9 & K p # 0 0 * L = U ^ ^ F | | ^ 9 9 P | | ^+",
"|.S S G.|.( * 6 q 9 l.e.    +   2 2 e.| =.F P l P ^ * E E | F | @.) | L =+U U C 9 |+5.K ' , } * * U } * ^ ^ E ^ | E P P d F * 0 ",
"0 ) | @.@.@.v  + +k N N } } ) k h 1 :+5 5 7 n m n m 5 5 n 7 5 5 5 5   5 :+; ~+t J :.J $.#.7 t O.m 7 7 + k k y.S ! P | @.@.0 `.`.",
"a h } U z.U F.D.o < v * % S S T.E | X ~ ~ 4 ' { X.{ ' ' G G p p p G p p { U U <.W : W + + ` a a 5 { { i < >.} !.!.! | | | ^+U d.",
"a U N N U N c.$+1+< v * % ;.S ! E =.#.y ' ' 1+c ^.^.o y t.p G G E.p p p e U U $.W ~.X + + $.(.v 5 { 3 i 1 b * !.!.d ^+2+o.^+0 0 ",
"0 0 t   Y 5 5 {.  T T ; S ;.-+G.E F _.p p y f.t t j q ` Z e ~ ~ ' i.p p i >.k e.e.e.e.b   q t t 5 o e e ) P O N k J + + + =+O N.",
"P E v 4 p 4  +V.r T 2 ; +.S +.G.=.F ] ' ' 4 e.9 P ^ =+0 N X %.i ~ G p p 3+; h ^ ( ( ( U + r t 1 7 { _ { ^ 4+@+2 u.: _ 4 ' t 5.l.",
"k k v @ Y 8 J } y.v ` h S |.,.F t (.q n + m t *.N N e.) | (.r ` $.` <.n 7 r $.1 ) O | ) U } h N 5 4 4 y ) & w U a ` <.n + k @.@.",
"/./.c.a a *.-.!.J.L d.) F F F (.L.0.d.=.=.F m       C P H d 9 P P 9 9 9 a ~ ' 7 J J J 9 !.+.^ E H.' t.' j N C 5++.9 | 2+L N a a ",
"/.+ v a N N E K.J.@.0 C E =.F (.^.^.* ^ P F 6       ^ ! & 9 9 9 9 & & & a _ _ n v r V.9 !.+.^ ^ m o ' 7.(.* z 5++.( | | | d.N a ",
"N * | * 0 0 ) C V k b h ^ P l e.J s O 9 9 9 =+t t t 1 >.>.t t O.O.6+1 O.` @ # @ Y Y @ k C w ^ ^ t 7 >+T r J 1 C V ) | 7+8+9+(.0+",
"!.!.,.^+^+0 v { n.'+: K & & 9 ! ! / G.G.d d G.( ( G.{ ' _ G p p i.p p p ' J J , p p p Y + r F F d.a a 1 Y { _ { { v * a+b+c+a.H.",
"%+%+,.| | 0 `.m n ` <. .P P & G.,.! E | E | | ) ) | { ~ ~ p p p p G p p ' J v X p E.p Y + F.F =.d.j a a 8 : { { { c.* d+e+f+a.H.",
"!.!.;.| | ^+-.!.!.J.!.S & P 9 G.G.( @ { { { ' ' ' ' : ' ~ G p p p p p p o v J X p E.p Y :+r | F d.j (.(.8 , { { e r.0 g+d.(.H./.",
"J.J.M | | | d J.J.h+J.;.& H H ,.% / 7 { { { ' ' ' ' , ' ' p p p p p p p D.v (.] p p p Y 6 v ^ | d.j a (.  : { { { r.0 0 0 j a./."};
