/* XPM */
static char * player2_xpm[] = {
"64 64 718 2",
"  	c None",
". 	c #19100B",
"+ 	c #1F1612",
"@ 	c #180E08",
"# 	c #23130B",
"$ 	c #140B05",
"% 	c #2A170D",
"& 	c #341C0F",
"* 	c #341C10",
"= 	c #331C10",
"- 	c #331D11",
"; 	c #311C11",
"> 	c #2F1A10",
", 	c #2E190E",
"' 	c #2D180D",
") 	c #2E180C",
"! 	c #050503",
"~ 	c #25160E",
"{ 	c #26150E",
"] 	c #1E120A",
"^ 	c #170D06",
"/ 	c #090502",
"( 	c #2C180E",
"_ 	c #3A2013",
": 	c #3A2012",
"< 	c #3A2011",
"[ 	c #030201",
"} 	c #1F130C",
"| 	c #26160E",
"1 	c #24140C",
"2 	c #351C0F",
"3 	c #30221C",
"4 	c #26150D",
"5 	c #25150D",
"6 	c #25170E",
"7 	c #3C2013",
"8 	c #3B2012",
"9 	c #3B2013",
"0 	c #3A1F11",
"a 	c #372721",
"b 	c #26160D",
"c 	c #3A1F12",
"d 	c #4F3A2C",
"e 	c #8F725B",
"f 	c #8F725C",
"g 	c #8F715C",
"h 	c #8E715B",
"i 	c #8F735C",
"j 	c #90735D",
"k 	c #90735E",
"l 	c #8F745F",
"m 	c #776050",
"n 	c #34251E",
"o 	c #25160D",
"p 	c #27160E",
"q 	c #22130A",
"r 	c #391F11",
"s 	c #6C5543",
"t 	c #D5AC8D",
"u 	c #D4AB8C",
"v 	c #D5AB8B",
"w 	c #D4AC8C",
"x 	c #D4AC8B",
"y 	c #D5AC8C",
"z 	c #B28F75",
"A 	c #352620",
"B 	c #140B06",
"C 	c #3B251B",
"D 	c #160B05",
"E 	c #45372C",
"F 	c #8C715B",
"G 	c #8C705A",
"H 	c #8D715B",
"I 	c #8D715C",
"J 	c #9F7F67",
"K 	c #CAA485",
"L 	c #765E4C",
"M 	c #23130A",
"N 	c #373230",
"O 	c #24150D",
"P 	c #23140C",
"Q 	c #080402",
"R 	c #6E4837",
"S 	c #030301",
"T 	c #020202",
"U 	c #675445",
"V 	c #D5AE8D",
"W 	c #C19D7E",
"X 	c #51382B",
"Y 	c #5B3728",
"Z 	c #553023",
"` 	c #321A11",
" .	c #714A39",
"..	c #5B4034",
"+.	c #ABABAB",
"@.	c #9A9A99",
"#.	c #4B4B4B",
"$.	c #A0A0A0",
"%.	c #A89F98",
"&.	c #D5AE8C",
"*.	c #CBAA8F",
"=.	c #949494",
"-.	c #868686",
";.	c #020201",
">.	c #5D5D5D",
",.	c #939393",
"'.	c #757575",
").	c #825B48",
"!.	c #88533D",
"~.	c #8A523C",
"{.	c #542F22",
"].	c #734E3C",
"^.	c #845C4A",
"/.	c #E0E0E0",
"(.	c #CECECD",
"_.	c #6C6C6C",
":.	c #DFDFDF",
"<.	c #DDD7D2",
"[.	c #D8B9A1",
"}.	c #DFDFDE",
"|.	c #CACBCA",
"1.	c #8B8B8B",
"2.	c #B1B1B1",
"3.	c #835D49",
"4.	c #8C553E",
"5.	c #8E543F",
"6.	c #5A3226",
"7.	c #76513F",
"8.	c #845E4A",
"9.	c #E0E0DF",
"0.	c #6D6D6C",
"a.	c #D8BAA0",
"b.	c #DFE0DE",
"c.	c #CBCBCA",
"d.	c #8B8B8A",
"e.	c #B2B2B2",
"f.	c #865F4A",
"g.	c #8D543E",
"h.	c #915740",
"i.	c #603729",
"j.	c #75503E",
"k.	c #87604C",
"l.	c #CFCFCE",
"m.	c #DCD6D2",
"n.	c #D8B9A0",
"o.	c #CACACA",
"p.	c #898989",
"q.	c #B1B1B0",
"r.	c #86604D",
"s.	c #8D543F",
"t.	c #955942",
"u.	c #754635",
"v.	c #885E4A",
"w.	c #89624F",
"x.	c #D9CCC4",
"y.	c #D0C4BB",
"z.	c #897260",
"A.	c #9D897B",
"B.	c #D8C7BB",
"C.	c #D5AD8C",
"D.	c #D7B599",
"E.	c #D9CDC4",
"F.	c #CCBEB4",
"G.	c #8A7460",
"H.	c #AB998C",
"I.	c #DACEC5",
"J.	c #AEA49D",
"K.	c #412D22",
"L.	c #492A1D",
"M.	c #47281C",
"N.	c #7E503D",
"O.	c #A8755A",
"P.	c #88614D",
"Q.	c #D5AB8A",
"R.	c #D5AD8B",
"S.	c #D5AD8D",
"T.	c #D5AE8E",
"U.	c #D6AE8D",
"V.	c #AF9177",
"W.	c #23140D",
"X.	c #21130C",
"Y.	c #110905",
"Z.	c #8B5C47",
"`.	c #A9765B",
" +	c #88614E",
".+	c #D5AC8B",
"++	c #D1AA8A",
"@+	c #C09E82",
"#+	c #C09F83",
"$+	c #C0A085",
"%+	c #C09F84",
"&+	c #BF9E82",
"*+	c #C2A185",
"=+	c #D6AE8F",
"-+	c #D6AF8F",
";+	c #B39277",
">+	c #22130C",
",+	c #130A06",
"'+	c #8E5F4A",
")+	c #AA775C",
"!+	c #8A634F",
"~+	c #C19E80",
"{+	c #030303",
"]+	c #675446",
"^+	c #D5AF8F",
"/+	c #D5AE8F",
"(+	c #D6AF90",
"_+	c #B49479",
":+	c #1D1410",
"<+	c #1C0F0A",
"[+	c #0E0705",
"}+	c #8F604A",
"|+	c #AA775E",
"1+	c #8B6450",
"2+	c #D5AB8C",
"3+	c #C6A184",
"4+	c #665243",
"5+	c #665343",
"6+	c #866D59",
"7+	c #B5947A",
"8+	c #1F1B19",
"9+	c #130B07",
"0+	c #503227",
"a+	c #986750",
"b+	c #A9775F",
"c+	c #89614E",
"d+	c #D5AD8E",
"e+	c #B6957B",
"f+	c #110B07",
"g+	c #472D22",
"h+	c #7B5240",
"i+	c #946752",
"j+	c #7C5847",
"k+	c #C9A588",
"l+	c #C49F82",
"m+	c #C19B7D",
"n+	c #C19C7E",
"o+	c #C19D7F",
"p+	c #C19E7F",
"q+	c #C19D80",
"r+	c #C19E81",
"s+	c #C09E81",
"t+	c #BF9C7F",
"u+	c #C09C80",
"v+	c #A48972",
"w+	c #283852",
"x+	c #20334A",
"y+	c #123E64",
"z+	c #0D355B",
"A+	c #09294C",
"B+	c #071A32",
"C+	c #092548",
"D+	c #082344",
"E+	c #0B2545",
"F+	c #0C2341",
"G+	c #6A4232",
"H+	c #875641",
"I+	c #895540",
"J+	c #87553F",
"K+	c #89553F",
"L+	c #5E3B35",
"M+	c #082546",
"N+	c #0A274A",
"O+	c #0B3057",
"P+	c #16466B",
"Q+	c #154466",
"R+	c #1B5580",
"S+	c #1C537C",
"T+	c #142F56",
"U+	c #0D3458",
"V+	c #1A5C92",
"W+	c #165188",
"X+	c #103D6E",
"Y+	c #092547",
"Z+	c #0F3A6D",
"`+	c #0E3768",
" @	c #0D3462",
".@	c #0E325E",
"+@	c #7B4C3A",
"@@	c #9A6148",
"#@	c #9A6149",
"$@	c #9C624A",
"%@	c #9C6149",
"&@	c #6B4642",
"*@	c #0D3562",
"=@	c #0E3764",
"-@	c #165083",
";@	c #206090",
">@	c #1F5986",
",@	c #22689E",
"'@	c #246A9E",
")@	c #0B1B2B",
"!@	c #113A68",
"~@	c #124064",
"{@	c #1A5B8F",
"]@	c #195A90",
"^@	c #154D85",
"/@	c #092648",
"(@	c #103C6F",
"_@	c #0F3A6C",
":@	c #0E3769",
"<@	c #0F3667",
"[@	c #102B52",
"}@	c #121F3A",
"|@	c #A16950",
"1@	c #A0684F",
"2@	c #9F6952",
"3@	c #0A2544",
"4@	c #0C2F57",
"5@	c #103A6B",
"6@	c #13477A",
"7@	c #1D6095",
"8@	c #205F90",
"9@	c #23699F",
"0@	c #246A9F",
"a@	c #134274",
"b@	c #14466E",
"c@	c #1C6299",
"d@	c #1A5B91",
"e@	c #154E85",
"f@	c #0A2649",
"g@	c #103E71",
"h@	c #103D70",
"i@	c #103B6D",
"j@	c #103B6C",
"k@	c #173057",
"l@	c #9A664E",
"m@	c #99654D",
"n@	c #996850",
"o@	c #113762",
"p@	c #113C6C",
"q@	c #134577",
"r@	c #19588D",
"s@	c #20669C",
"t@	c #215F8F",
"u@	c #1F5885",
"v@	c #236AA0",
"w@	c #144375",
"x@	c #15476F",
"y@	c #1D6299",
"z@	c #1A5B92",
"A@	c #165187",
"B@	c #124273",
"C@	c #0B2B4D",
"D@	c #13467B",
"E@	c #13467C",
"F@	c #12457A",
"G@	c #124578",
"H@	c #124478",
"I@	c #113E6B",
"J@	c #12406F",
"K@	c #11406F",
"L@	c #14497E",
"M@	c #175388",
"N@	c #1B6096",
"O@	c #21689E",
"P@	c #205F8F",
"Q@	c #22699E",
"R@	c #236A9F",
"S@	c #246B9F",
"T@	c #124274",
"U@	c #164871",
"V@	c #1A5D94",
"W@	c #18578D",
"X@	c #13497A",
"Y@	c #0F3457",
"Z@	c #185288",
"`@	c #165289",
" #	c #155187",
".#	c #165288",
"+#	c #17548A",
"@#	c #1A5D93",
"##	c #1E659B",
"$#	c #206498",
"%#	c #194D75",
"&#	c #205B87",
"*#	c #22699F",
"=#	c #2369A0",
"-#	c #174A73",
";#	c #1E659C",
">#	c #1B6097",
",#	c #185284",
"'#	c #030813",
")#	c #071424",
"!#	c #1A5D95",
"~#	c #1A5C93",
"{#	c #1D649B",
"]#	c #20679F",
"^#	c #1F5F90",
"/#	c #020712",
"(#	c #215C8A",
"_#	c #22689F",
":#	c #134275",
"<#	c #184A74",
"[#	c #1F679E",
"}#	c #1D659C",
"|#	c #1C639B",
"1#	c #1A588B",
"2#	c #040C1B",
"3#	c #0A1A2D",
"4#	c #1C649B",
"5#	c #1D639C",
"6#	c #1D639B",
"7#	c #1D649C",
"8#	c #1E669D",
"9#	c #20689F",
"0#	c #2168A0",
"a#	c #1E5F91",
"b#	c #020916",
"c#	c #215B89",
"d#	c #134375",
"e#	c #184A73",
"f#	c #20689E",
"g#	c #2068A0",
"h#	c #1C5D8F",
"i#	c #040F20",
"j#	c #0A1B2E",
"k#	c #1F689F",
"l#	c #2069A0",
"m#	c #20699F",
"n#	c #2169A0",
"o#	c #1E6091",
"p#	c #030A18",
"q#	c #246B9E",
"r#	c #216AA0",
"s#	c #1E5F90",
"t#	c #041021",
"u#	c #206AA0",
"v#	c #206AA1",
"w#	c #1F69A0",
"x#	c #1F6AA0",
"y#	c #1F6091",
"z#	c #030A19",
"A#	c #235E8C",
"B#	c #246BA0",
"C#	c #276B9E",
"D#	c #7B656B",
"E#	c #6A6774",
"F#	c #8B8899",
"G#	c #8C8797",
"H#	c #8D8795",
"I#	c #817B86",
"J#	c #051022",
"K#	c #09192D",
"L#	c #1E69A0",
"M#	c #201513",
"N#	c #B99C85",
"O#	c #CEAA8D",
"P#	c #D0AA8C",
"Q#	c #D2AC8E",
"R#	c #A57B64",
"S#	c #A1816A",
"T#	c #D2AA8A",
"U#	c #D2AB8B",
"V#	c #D2AB8C",
"W#	c #BF9B7F",
"X#	c #051023",
"Y#	c #09192C",
"Z#	c #216AA1",
"`#	c #1E1411",
" $	c #BB9980",
".$	c #D2AA8B",
"+$	c #D3AB8C",
"@$	c #A07F68",
"#$	c #D3AA8B",
"$$	c #D3AB8D",
"%$	c #D3AC8D",
"&$	c #BF9B7E",
"*$	c #041023",
"=$	c #09182B",
"-$	c #1F6192",
";$	c #1E130F",
">$	c #BC9A80",
",$	c #D3AB8B",
"'$	c #A47B63",
")$	c #A08068",
"!$	c #051123",
"~$	c #09192B",
"{$	c #1E1310",
"]$	c #BB9A7F",
"^$	c #D2AB8A",
"/$	c #A57C63",
"($	c #D3AA8A",
"_$	c #BF9B7D",
":$	c #09182A",
"<$	c #21699F",
"[$	c #BC9A7F",
"}$	c #D1A98A",
"|$	c #A67C63",
"1$	c #A07F67",
"2$	c #BF9A7D",
"3$	c #09172A",
"4$	c #1F69A1",
"5$	c #1D120F",
"6$	c #D2A98B",
"7$	c #C09A7D",
"8$	c #051020",
"9$	c #081729",
"0$	c #226AA1",
"a$	c #1E120E",
"b$	c #BD997F",
"c$	c #D2A88A",
"d$	c #D3A98A",
"e$	c #A77D64",
"f$	c #BF987B",
"g$	c #050F1E",
"h$	c #081627",
"i$	c #206292",
"j$	c #20120D",
"k$	c #B5866E",
"l$	c #CE9C7E",
"m$	c #D2A98A",
"n$	c #A77E65",
"o$	c #D2A989",
"p$	c #CE9374",
"q$	c #B87D61",
"r$	c #0A121E",
"s$	c #081527",
"t$	c #20699E",
"u$	c #216598",
"v$	c #1C5F90",
"w$	c #1D5F90",
"x$	c #1F5E8E",
"y$	c #1D5986",
"z$	c #18537F",
"A$	c #164D74",
"B$	c #22130E",
"C$	c #AD674F",
"D$	c #C98A6C",
"E$	c #A87E65",
"F$	c #A17F67",
"G$	c #C88566",
"H$	c #B66D52",
"I$	c #12110F",
"J$	c #030405",
"K$	c #112B3F",
"L$	c #081724",
"M$	c #020306",
"N$	c #030202",
"O$	c #060302",
"P$	c #1E120B",
"Q$	c #27160D",
"R$	c #29150B",
"S$	c #2A150A",
"T$	c #271308",
"U$	c #23120C",
"V$	c #B7896E",
"W$	c #CF9F7E",
"X$	c #D1A888",
"Y$	c #A97F66",
"Z$	c #A07E66",
"`$	c #D1A687",
" %	c #BF977B",
".%	c #150E09",
"+%	c #532E1B",
"@%	c #522D1A",
"#%	c #532C19",
"$%	c #56301C",
"%%	c #5A331E",
"&%	c #5A321D",
"*%	c #5C321D",
"=%	c #5D331D",
"-%	c #5C331D",
";%	c #5D341E",
">%	c #5E341E",
",%	c #532E1A",
"'%	c #23120D",
")%	c #BC997E",
"!%	c #D0A788",
"~%	c #D1A686",
"{%	c #D0A888",
"]%	c #98725C",
"^%	c #D2A888",
"/%	c #D1A98B",
"(%	c #BC997D",
"_%	c #1B100B",
":%	c #1D1009",
"<%	c #5D331E",
"[%	c #5C331C",
"}%	c #552F1A",
"|%	c #512D1A",
"1%	c #512E1B",
"2%	c #57301B",
"3%	c #542F1B",
"4%	c #281A12",
"5%	c #21130B",
"6%	c #4B2B1B",
"7%	c #12100D",
"8%	c #110B06",
"9%	c #492816",
"0%	c #2C1B12",
"a%	c #24150C",
"b%	c #5D341D",
"c%	c #4A2A1B",
"d%	c #130B05",
"e%	c #482816",
"f%	c #5C341D",
"g%	c #2E1E14",
"h%	c #26160C",
"i%	c #5B321C",
"j%	c #4A2A19",
"k%	c #160C05",
"l%	c #542E1A",
"m%	c #311F15",
"n%	c #28170D",
"o%	c #5B321D",
"p%	c #5B311C",
"q%	c #492919",
"r%	c #160C06",
"s%	c #472716",
"t%	c #532E19",
"u%	c #321F14",
"v%	c #29170D",
"w%	c #5B311B",
"x%	c #492A1A",
"y%	c #160D06",
"z%	c #482716",
"A%	c #332016",
"B%	c #5A311C",
"C%	c #5A311B",
"D%	c #170D07",
"E%	c #462515",
"F%	c #522D19",
"G%	c #342218",
"H%	c #5A301B",
"I%	c #59311B",
"J%	c #59301B",
"K%	c #482818",
"L%	c #452515",
"M%	c #502B18",
"N%	c #34221A",
"O%	c #28160D",
"P%	c #58301B",
"Q%	c #592F1B",
"R%	c #462716",
"S%	c #170C07",
"T%	c #452415",
"U%	c #582F1C",
"V%	c #582F1B",
"W%	c #4F2A17",
"X%	c #332017",
"Y%	c #26150C",
"Z%	c #582E1A",
"`%	c #462618",
" &	c #432414",
".&	c #572E1B",
"+&	c #562E1A",
"@&	c #2A180F",
"#&	c #552E1A",
"$&	c #572E1A",
"%&	c #542E19",
"&&	c #472719",
"*&	c #391E11",
"=&	c #422212",
"-&	c #452413",
";&	c #533021",
">&	c #5A3526",
",&	c #291811",
"'&	c #1F120B",
")&	c #7D442F",
"!&	c #7B412D",
"~&	c #8B4F3A",
"{&	c #975840",
"]&	c #7D4834",
"^&	c #180E07",
"/&	c #8B4A36",
"(&	c #B35F44",
"_&	c #B66246",
":&	c #B96547",
"<&	c #A65A3F",
"[&	c #2D1B12",
"}&	c #AB5A40",
"|&	c #A4553C",
"1&	c #A55A3F",
"2&	c #A15B40",
"3&	c #7F4832",
"4&	c #160C07",
"5&	c #592E20",
"6&	c #703A25",
"7&	c #6B3924",
"8&	c #653826",
"9&	c #4E2817",
"0&	c #3B2215",
"a&	c #2B1B14",
"b&	c #26140B",
"c&	c #3D1F10",
"d&	c #3B1F11",
"e&	c #361D10",
"f&	c #3F2313",
"g&	c #391F13",
"h&	c #2B2B2C",
"i&	c #1B0E07",
"j&	c #21120B",
"k&	c #442516",
"l&	c #472513",
"m&	c #4A2817",
"n&	c #4F2C18",
"o&	c #391D0E",
"p&	c #1F1511",
"q&	c #2A170F",
"r&	c #2C180F",
"s&	c #59311C",
"t&	c #0C0C0C",
"u&	c #0D0805",
"v&	c #28160C",
"w&	c #59301A",
"x&	c #5B311A",
"y&	c #582F1A",
"z&	c #422211",
"A&	c #25150F",
"B&	c #4D2A18",
"C&	c #532D18",
"D&	c #4F2B18",
"E&	c #4B2817",
"F&	c #1F110A",
"G&	c #472C1E",
"H&	c #381D0E",
"I&	c #341F14",
"                                                                                                                                ",
"                                                                                                                                ",
"                                                                                                                                ",
"                                                                                                                                ",
"                                              . + @ # $ % & * = = - - - ; > , ' ) !                                             ",
"                                              ~ { ] ^ / ( _ _ _ _ _ _ _ _ _ _ : < [                                             ",
"                                            } | { | 1 _ _ _ _ _ _ _ _ _ _ _ _ : : 2 3                                           ",
"                                            ~ 4 5 6 # 7 7 _ 8 9 9 8 8 8 9 8 : : < 0 a                                           ",
"                                            6 4 b | # c d e f g h i j j j k l l m 0 n                                           ",
"                                            6 ~ o p q r s t u v w w x y y w y t z < A                                           ",
"                                            6 ~ 5 B C D E F G H I J x K H G G h L M N                                           ",
"                                            6 O P Q R S T T T T T U V W T T T T T T                                             ",
"                                            X Y Z `  ...+.@.T #.$.%.&.*.=.-.;.>.,.'.                                            ",
"                                            ).!.~.{.].^./.(.T _.:.<.&.[.}.|.T 1.}.2.                                            ",
"                                            3.4.5.6.7.8.9.(.T 0.:.<.V a.b.c.T d.}.e.                                            ",
"                                            f.g.h.i.j.k./.l.T 0.:.m.V n.:.o.;.p.}.q.                                            ",
"                                            r.s.t.u.v.w.x.y.z.A.x.B.C.D.E.F.G.H.I.J.                                            ",
"                                            K.L.M.N.O.P.Q.t t C.R.&.V V S.C.V T.U.V.                                            ",
"                                            W.X.Y.Z.`. +.+y y ++@+#+$+%+&+*+V =+-+;+                                            ",
"                                            >+>+,+'+)+!+t y y ~+{+T T T ;.]+^+/+(+_+                                            ",
"                                            :+<+[+}+|+1+2+y S.3+4+4+5+4+4+6+/+/+-+7+                                            ",
"                                            8+9+0+a+b+c+u y w y d+d+V T./+S.S./+=+e+                                            ",
"                                              f+g+h+i+j+k+l+m+n+o+o+p+W q+r+s+t+u+v+                                            ",
"                                      w+x+y+z+A+B+C+D+E+F+G+H+I+J+K+K+L+M+N+O+P+Q+R+S+                                          ",
"                                      T+U+V+W+X+Y+Z+`+ @.@+@@@#@$@#@%@&@*@=@-@;@>@,@'@)@                                        ",
"                                    !@~@{@]@^@X+/@(@_@:@<@[@}@|@1@2@3@4@5@6@7@8@>@,@9@0@                                        ",
"                                    a@b@c@d@e@X+f@g@h@(@i@j@k@l@m@n@o@p@q@r@s@t@u@,@v@0@                                        ",
"                                    w@x@y@z@A@B@C@D@E@F@G@H@B@I@J@K@q@L@M@N@O@P@>@Q@R@S@                                        ",
"                                    T@U@c@V@W@X@Y@Z@W+`@W+A@ #A@.#.#+#W@@###$#%#&#*#=#S@                                        ",
"                                    T@-#;#>#V@,#'#)#!#~#~#z@V+~#~#~#V@>#{#]#^#/#(#_#*#'@                                        ",
"                                    :#<#[#}#|#1#2#3#4#5#{#6#6#7#{#6#}#8#9#0#a#b#c#,@*#0@                                        ",
"                                    d#e#f#g#[#h#i#j#k#9#l#m#9#l#9#m#m#l#l#n#o#p#(#,@R@q#                                        ",
"                                    :#e#n#r#m#s#t#3#m#r#u#v#l#w#x#x#v#l#r#r#y#z#A#R@B#C#                                        ",
"                                    D#E#F#G#H#I#J#K#l#u#v#w#w#w#L#w#w#u#u#n#y#M#N#O#P#Q#                                        ",
"                                    R#S#T#U#V#W#X#Y#l#Z#l#w#w#l#l#w#L#w#l#r#o#`# $.$+$U#                                        ",
"                                    R#@$#$$$%$&$*$=$l#l#w#l#l#w#w#w#w#w#n#r#-$;$>$.$V#,$                                        ",
"                                    '$)$+$V##$&$!$~$l#v#x#w#w#w#w#u#w#w#Z#r#-${$]$.$#$^$                                        ",
"                                    /$)$($T#,$_$!$:$<$Z#Z#w#l#w#L#w#w#l#u#Z#-${$[$}$#$,$                                        ",
"                                    |$1$($#$.$2$J#3$r#Z#v#4$w#l#l#w#w#u#r#Z#-$5$>$6$6$T#                                        ",
"                                    |$@$#$($#$7$8$9$n#Z#Z#Z#l#l#n#Z#l#r#r#0$-$a$b$c$d$($                                        ",
"                                    e$1$($.$6$f$g$h$n#r#r#r#l#l#l#l#l#l#r#r#i$j$k$l$m$T#                                        ",
"                                    n$@$m$o$p$q$r$s$f#r#m#t$O@u$v$v$w$x$y$z$A$B$C$D$}$T#                                        ",
"                                    E$F$m$m$G$H$I$J$K$L$M$T T T N$O$P$Q$R$S$T$U$V$W$X$o$                                        ",
"                                    Y$Z$o$m$`$ %.%B +%@%#%$%%%&%*%=%-%-%;%>%,%'%)%!%~%{%                                        ",
"                                    ]%@$^%m$/%(%_%:%>%=%-%<%[%}%|%1%2%=%<%;%3%                                                  ",
"                                                4%5%=%<%-%-%6%  7%8%9%;%;%;%3%                                                  ",
"                                                0%a%-%b%-%-%c%    d%e%-%f%f%3%                                                  ",
"                                                g%h%-%-%i%*%j%    k%e%-%-%-%l%                                                  ",
"                                                m%n%-%o%p%i%q%    r%s%-%*%*%t%                                                  ",
"                                                u%v%i%p%w%i%x%    y%z%i%i%i%t%                                                  ",
"                                                A%v%B%C%C%i%q%    D%E%C%B%C%F%                                                  ",
"                                                G%v%H%I%J%J%K%    ^ L%J%J%J%M%                                                  ",
"                                                N%O%J%P%Q%Q%R%    S%T%P%U%V%W%                                                  ",
"                                                X%Y%V%Z%Z%V%`%    S% &V%.&+&W%                                                  ",
"                                                @&v%#&$&$&%&&&    B *&=&-&;&>&                                                  ",
"                                                ,&'&)&!&~&{&]&    ^&/&(&_&:&<&                                                  ",
"                                                [&O%}&|&1&2&3&    4&5&6&7&8&9&0&                                                ",
"                                                a&@&b&c&d&e&f&g&h&B i&j&k&l&m&n&o&                                              ",
"                                                p&q&r&@%B%s&B%I%t&u&r%v&w&x&I%y&z&                                              ",
"                                                    A&B&$%C&D&E&      F&G&H&I&                                                  ",
"                                                                                                                                ",
"                                                                                                                                ",
"                                                                                                                                ",
"                                                                                                                                "};
