/* XPM */
static char * wall_xpm[] = {
"64 64 121 2",
"  	c #CDCDCD",
". 	c #CFCFCF",
"+ 	c #D0D0D0",
"@ 	c #D8D8D8",
"# 	c #CFD0CF",
"$ 	c #D4D4D4",
"% 	c #D8D8D7",
"& 	c #D7D7D7",
"* 	c #D6D6D6",
"= 	c #D2D2D2",
"- 	c #D1D1D1",
"; 	c #D2D3D2",
"> 	c #D5D6D5",
", 	c #D8D9D8",
"' 	c #D4D4D3",
") 	c #D3D3D3",
"! 	c #D4D5D4",
"~ 	c #D6D6D7",
"{ 	c #CECECE",
"] 	c #D5D5D5",
"^ 	c #D3D4D4",
"/ 	c #D3D3D2",
"( 	c #CECFCE",
"_ 	c #D9D9D9",
": 	c #D7D8D7",
"< 	c #D2D3D3",
"[ 	c #D1D2D1",
"} 	c #D7D7D6",
"| 	c #CFD0D0",
"1 	c #CCCCCC",
"2 	c #CBCBCB",
"3 	c #D7D6D6",
"4 	c #CFCFCE",
"5 	c #D0D0CF",
"6 	c #CECECF",
"7 	c #D6D7D6",
"8 	c #D4D3D3",
"9 	c #D1D1D0",
"0 	c #CACACA",
"a 	c #CCCDCC",
"b 	c #D0D1D0",
"c 	c #D2D2D1",
"d 	c #D3D4D3",
"e 	c #D6D6D5",
"f 	c #D1D2D2",
"g 	c #D5D5D4",
"h 	c #D5D6D6",
"i 	c #D0D1D1",
"j 	c #D6D7D7",
"k 	c #CDCDCC",
"l 	c #D8D7D8",
"m 	c #D8D9D9",
"n 	c #D9D9D8",
"o 	c #D4D5D5",
"p 	c #CDCECD",
"q 	c #D8D7D7",
"r 	c #CFCECE",
"s 	c #D3D2D2",
"t 	c #CFCECF",
"u 	c #D0D0D1",
"v 	c #D3D3D4",
"w 	c #CECECD",
"x 	c #D1D0D1",
"y 	c #D4D4D5",
"z 	c #D9D8D8",
"A 	c #D9DADA",
"B 	c #D8D8D9",
"C 	c #D3D2D3",
"D 	c #DADADA",
"E 	c #D9DAD9",
"F 	c #D7D7D8",
"G 	c #D2D1D2",
"H 	c #D6D5D6",
"I 	c #D5D5D6",
"J 	c #D7D8D8",
"K 	c #D6D5D5",
"L 	c #CECFCF",
"M 	c #D5D4D4",
"N 	c #D1D1D2",
"O 	c #D5D4D5",
"P 	c #D4D3D4",
"Q 	c #D0CFCF",
"R 	c #C9C9C9",
"S 	c #CDCDCE",
"T 	c #D2D2D3",
"U 	c #CFCFD0",
"V 	c #CBCCCB",
"W 	c #CDCCCC",
"X 	c #CBCBCA",
"Y 	c #CCCCCB",
"Z 	c #D1D0D0",
"` 	c #CCCDCD",
" .	c #C7C7C7",
"..	c #C9CAC9",
"+.	c #CACBCB",
"@.	c #CBCCCC",
"#.	c #CDCECE",
"$.	c #C6C6C6",
"%.	c #C8C8C8",
"&.	c #C5C5C4",
"*.	c #C8C9C8",
"=.	c #CECDCD",
"-.	c #CECDCE",
";.	c #D0CFD0",
">.	c #CACBCA",
",.	c #CACAC9",
"'.	c #C9CACA",
").	c #C7C7C6",
"!.	c #C7C8C7",
"~.	c #C5C5C5",
"{.	c #C9C9C8",
"].	c #C8C9C9",
"^.	c #C9C8C8",
"/.	c #C6C7C6",
"(.	c #E4E4E3",
"_.	c #DFDFDF",
":.	c #E2E2E2",
"<.	c #E1E1E0",
"[.	c #E0E0E0",
"}.	c #C5C6C6",
"|.	c #C4C5C4",
"  . . + @ # $ @ % @ & * * @ @ = . - & = ; > , @ > * % % & ' ) * & * ' - ; * & & * @ ! ) - $ ~ - { { ] - . + * $ ^ = - * * $ / { ",
"- - $ & % @ @ & > & + ( - _ : < + - & = [ $ @ _ { - @ , ] $ $ * } + = * { * & ] + & ) = |   * * $ { ] > = . ] 1 2 . $ * * = . { ",
"@ = - = * @ @ : * 3 * & & @ @ @ } ' & - . . . 4 ( . 5 # $ ] * ] 6 . < & & . . - & @ = ) 7 ] $ ) 8 * ] & ) {   * ] 9 0 0 0   . a ",
"@ $ ) ) ] ] ] ) + $ ] $ $ ) ] * 7 ] * ] ] ) { { ' = . ] = b / * + 9 = $ @ + 5 - = @ = $ & * * ! c + * & ) . ) * ] d - - - + . { ",
"* - + - $ $ $ = + ; ] ! ) . ] e * e 7 ] & ] . 5 * ] - * < b ) @ - f = $ & ) / = = $ ) $ ] g ' ) - . ] e = . & & $ ) ] ] ] = - . ",
"' {   . ] $ $ $ ' ; * ] ; 1 * & * ] ] = $ ] ; + h & % $ ^ $ $ > ; c = ] 7 ] > * e b = = = ; 9 - - - d ! b { e * + + ) $ $ $ ) i ",
"* = $ * * $ $ ) ; * * -   . ] @ ] 5 + & ) ) _ + $ * @ : - + . { * = c / ) $ $ ] * , + . + j & & * $ $ $ b k ; ) . 1 k $ $ - + $ ",
"1 1 - $ $ = $ $ [ $ $ + { $ l m ] = @ @ ) + - & * * @ @ & * * ] ) ) ) ' ) @ @ @ @ { ) ] ] & & & $ 5 $   + ) = ) ) $ $   $ ] ] * ",
". | = ) ) + - ) $ $ g - + * & e $ ; $ g ) - - @ e $ ] @ @ * ] $ 3 = = $ $ * % n @ ' > 7 * * & @ ! - + - ) $ . # ) ] ! - g * > ) ",
") ) $ $ o c . + / d ] - 5 c * * ] ] ] > ^ = ] * ] $ / * : * g ] _ $ $ j & } & } & 7 > * * & & > $ $ b ] $ -     = ] $ * * g ) ( ",
"- = $ & } $ + { { ' $ + { p ] * & _ _ @ $ ! _ = ] ] = ) & & & @ @ : q @ , _ * ) ' ) $ $ ] & * ) ) > * ] = . r # ; $ = g ! - . 1 ",
"1 - d h @ { . . 5 $ - . - $ $ - = * _ s g } & ] ] g $ $ ] * & & - ) $ ] _ _ * > h = { . ) $   ) ] = + + $ ] + * * ) . + {   { ] ",
") * @ @ @ ) $ * * * * > ] * ] $ $ $ @ & * * ] & * * * * & & ] - & & @ @ _ _ @ $ . t $ ] * ] ) $ $ = u = ! * ) $ $ < - ) ) . k ( ",
"e e ] * @ & : @ % : @ & * & * & ] v , g ] * * ] $ g * * @ * ) - e @ _ _ @ e $ ) $ d * & @ & ] d ) $ . ) $ $ $ ] e ! 8 ) ) b { 0 ",
"7 ) / d @ ^ o 7 : $ $ $ ] : > ] ] ] * ) ! & * ] $ g & & @ & $ ) = & _ @ g $ - = @ ! ) ! & & ^ = = $ b ) / 8 e 7 * $ ) $ d ) = w ",
"* - + - @ { - > } . { = $ : o $ * } = ) ] & & 7 & & & @ @ _ * 9 - * @ 7 - $ x [ @ . { - * & = = ) ] ! d ) $ & * ] = { ] ] ] ] ) ",
"- + + + + y ] [ { & ) $ ) { * ] ] ] g $ * & * ~ $ ] @ & z A B % * ) - - @ . ) $   * $ ] * * ) $ d - ] ) ' > * * ) - + C . { . ] ",
"$ ' - + = 5 = ) - b g & * - $ ] $ ) ] & @ _ _ ) d ] & $ @ & $ ) @ $ = - = - ; -   & g ] $ - + $ $ = * - # + & - . b ) ' 5 { . + ",
"& * ; - > ) - - ) ! & * ) ; d ] > ] = * _ _ D ) $ ] ] ! 7 ] ] ] % * ] ] ! ] > ) + $ * ] ) ) ^ ] ] $ ) +   { c < f ) ] #   + = + ",
"& & d - * ! - - ! @ @ ] = [ ' $ e > 9 $ @ _ E 7 ] ] ] * * ] & : @ * ] & & > * ] [ ' $ ) $ $ ! g $ ) + + + + - ] d / $ { . = ' . ",
": & ^ - - = c = ) F @ $ = - ~ * ] ' ) ) & _ _ _ & } * * * * & @ @ = ) @ @ 8 * * ) & . - & $ ) e ' { { $ * j * * ) + i ] $ ] ) 2 ",
"& & = . g = ) > * $ $ } & & G ] $ - @ ] * _ _ + ] j } * & @ _ _ * * * * H ) ] * ) = - - = I & & $ # & $ ] ] . + = = - = - $ $ . ",
". ! ] ) + } 7 & * . + + = @ ] 7 * * @ * * ) . * & & & _ @ @ @ @ & @ & & & & @ * $ $ $ / = [ - [ - - @ ] g ] ] 1 a b $ ( p - < 1 ",
"/ * ] ] ) ] ] ] ; . = - c & & > ] ] d ! = - / % ] ! ] & m * * @ J , & e : * * ] $ : 7 ] / = b ; ) = ) ) $ ] ] + . { . 1 . + # 1 ",
"} ] $ $ & ) s ) - [ ] ' d & & ] ] ! ) $ - - @ @ $ $ g g @ ] ] n & l & * @ ] ] ] ^ @ @ * / ) ) $ ] ] [ = $ ] g ] = {   w = - .   ",
"& + { - * . . + - & & j @ * @ @ & * l & * } _ & & } } ] ] * & _ * * * & m @ @ * b & @ $ 9 * ] > & & 3 = $ ] ] $ . . $ # s ) / + ",
". ' ] * * { . + + - * ] ) H * @ _ B e % & * & . 9 v & & & _ * + & @ : & n @ @ & * {   - ] * * } & & . $ ) - + w - o $ )   + ) $ ",
". ! * * & { { - ] * & & ] = : g ) ) * $ ] * & [ $ & @ @ [ ) ) - ! ! $ ) ] @ ] $ & $ = ; = w 7 ] ) - + ! -   { ) 8 ' c 2 1 0 1 ) ",
"# ) $ ] & { . ) & @ * g g ; 7 ) i - & = $ & : d K * & } = = ) ) ] * ] $ ! 7 $ $ % & ] = . . = = c = ) ) - {   - = ) - 0 1 1   - ",
"b b + ; 7 . $ & : & $ ) $ $ $ $ ) - ] $ $ ] > ] ] ] ] ] * ) ) ] @ @ @ % * ] ] * J % & ) . ) L { c * $ + = )     . ; = 1 { + +   ",
"] = = ) @ ] ] & * ) * & * M ) ) $ = - * N   { ] ] ] ] ] $ ) ) = @ @ @ @ $ * * & @ & & * ] - + + ; H + $ ] ) { $ ) ) = G ) + { { ",
"{ { - ) & + # + + ] } & * * _ > + . & : c { {   d * * * ] ] $ = * - ) @ ] ] * & 3 : 5 . u = - - = = > e = . $ ) $ - 1 d $ + . = ",
"= { 9 ) = - - - - $ * * * * % h = . ! * ] $ ) . ] * * $ * * $ / 7 ) $ * ] & & ] $ > = b - $ ! ; i + = ] $ = c   ( . { w = 9 9 = ",
"= - ) $ = = ) $ ) 9 = I * ) * * e / # ] ] g & $ ] $ g / & * e * 7 e * } 7 * * ] d d ] $ ' g $ = - = { ) ] ) ;   { + . 1 # = ) ) ",
"{ $ > * ] ) ) $ $ + . $ * - O ~ & ] + ] $ = & & ) / ) = * & & & @ & & @ & ) $ ] $ = $ ] * = - = ) $ { - + - $ = $ = 5 9 + = ) c ",
") ] $ ; ) $ $ $ ] * c $ * & . $ } * * & } * & & & * * = ) = $ & & @ & @ & * 7 $ { ) { + o $ = c = - $ { { = $ $ $ < + c p i - k ",
") ] ) - $ g ! ] ] * ] d $ ] ] * * * & ) = = = * & & & > $ = = ] * & @ & - 7 & ) . ) . i P + ; = = = ] ; - = $ ! . L ) = 9 . { . ",
"e ) = / } < $ ] e * = - = ! ] ] * ] / i = $ $ ; 7 & * ' & ) = d * * ] ) ; * $ + 4 [ + + = = + . - = ' d = = ) d - [ $ ;   2 1 + ",
"] - - = ] ) = ) ) = - = d $ $ ) $ ] = = ) ' $ = I * ] ) h $ ) $ & C - - $ ^ = - - . + + + ) - i - - $ = - + + = ) ) [         p ",
"- + + - - ] [ + . . ) $ $ $ $ - - * * * ) + - $ ) $ $ ) ) $ ] 7 * Q . = N = $ ] ) { + + . + $ $ [ w O +   1 b ) ) c . R + ; - R ",
"= c $ ] $ ] = # + . . ) ] $ * * d - * * * $ c ^ d - . ) ) = ) ) * e ! - = c - [ = ) - + | . $ # a   2 (   p - / d [ + ) ) d - 2 ",
"d $ ] ] ] { + b + ; d f - - f = . # * 7 ) - = = = f = * $ ) ] 7 - ] $ - b b - = $ . [ ) = + ' / . a   L - c { . b - - [ f + {   ",
"] ] e ] ] . 9 9 { b ' ) = ) ( - - + ! * = 9 $ ' - = $ ] ] ! ! ! - ) ) ) [ = = = ) + + + - - ) +   2 1 { {   5 ( {   1 1 + S 2 2 ",
"] ] $ ' $ + - + ( . C ) ' $ { = ) - $ ] = - ] ] = = = ) ) $ $ = ) = < 8 [ - - - = x . . + - T { 1 1 2   a k b 6   2 2 0 u { 1 1 ",
"] $ = + + = . { = $ + + . + - ) g $ ] ] ] $ $ ! ] )       - $ M ] = = - x 2 2 . ] 1 - = . U . 5 + + 1 2 . - R . { . [ = = = = = ",
"] $ = + b V 1   1 1 5 # + - [ ) $ = W { / $ g $ ] ' - ) { + d ) $ ! / - ) 2 X 1 { a 2 Y 5 + ; - b - - - - - = . .   2 + = = + R ",
") { a   ) 2 . . Y 2 f + { $ $ . 1 { d w = * > g = - - b ( { Z c ; $ = 9 + ; ) / ) < = 5 1 a ' L 1 1 1 2 2 2 0     1 1 p a 2 2 1 ",
"+ 1   . + { - +     = + + $ i . . + ] + ) $ - = + + 9 - - + + = - = - + = + + + + - . { 1 ` = { 1 2 a 0 R 0 R     1     1 0  ...",
"2 2 + = 2 = - + { - - = ) / 2 + d d ) P ) + +.U + 5 + = = - - v . . + - $ 2 2 2 2 S 2 k + - { + . 1 ) Y 0 1 @.+ {   #.1 1 R  .$.",
"2 Y . + 1 = + {   $ $ $ $ ) . . + s ) $ 5 k 2 - - + 5 . . = ) ) w # = = - - - + . . 5 - ) ) 2 1 1 2 ) . + - - = + . w %.%.2 1 &.",
"= 1 { + = 0 0 1 . . 4 { . - / ; ) = - ) $ = *.b p . = ; L + ) ) ) . . - ; ! o $ ' = + + + + 1 0 2 { + + + .   @.2 0 0 + + + # 1 ",
"= . + - ( 2 1 4 . . 9 + 9 - { - - ( { - ) = { # | + ; / . # = / = 1 a 9 ) - s $ d =   { + { 2   . + - - + ( 4 { 1 0 X 9 b + . 0 ",
"{ { { { 2 0 =.+ + - = = = { 2 + - { { - c c ;   + - . + . - = = - { { 4 | . + = = - { { +   0 1 . ( - . -.w         k { { 5 . 2 ",
"0 0 R +.  1   . + + 9 c - 2 1 . = = - c = [ - 1 - + 2 2 . + - - - | { 1 1 { 5 + ;.- - - 5 . 1 1 1 1 - 2 2   2 0   + +     . 5 # ",
"2 0 2 1 [ = 4 { . 2 >.+ = [ = + - b Y . + . + + b + { 0 ,.'.  - + 0 2 + ;   +   ).b [ + . c 0 { - - - { a 1 2 X 1 . . 5 5 + + + ",
"+ 0 %.0 - 1 { . . { { 1 2 2 >.0 X V k { { . + 9 - - - + 5 + - - [ + . k   R R !.~.#     + - 2 { - - {.{     . ..a   R R %.2   { ",
"f { 1 p [ 0 { { V { . { { { {   { { .   { L - b + +   + - + { ( {     V 1 1 1 R $.. . + + - >.{ - 9 R 2 1 w - R     %.0 0 1 p 0 ",
"- - + + { 1 2 2 1 { . . + + { { {   . 1 { + - u + {   . { { . { 1 1 2 1 1 -.. k 0 . + . { t 2 { - -   %.0   . %.1 1 R 1 0 1 p 0 ",
"- - - . %.w R R . + . 4 ( - 2 0 0 R | 0   + - -     . . 0   = = { {   1   1   . . . + 4 2 1 2 4 - 9 - %.R Y   %.Y { 2 2 !.X   { ",
". + 1 0 + # 5 + .   + { 2  . .>.{ + + # + - = *.# = - # ..0 @.. {.1 1 1 1 + {         2 ].w { { 1 2 i %.R 1   %.1 # { # { ` 1 0 ",
"R 2 2 0 #  .  + # %.. 2 ^. .R 2   5 { ( . . - { 2 1 + 5 1 0 k b . X 1 + | # 1 0 0 @.1 +.0 R V X 0 R V 1 a   2 ~.$.$./.(._.:.1   ",
" .R ..0 + 1 2   + R { w 1 ,.2 1 { . . . . ( Y . { 2 0   2 2 { [ - {   . - 0 1 w   1 1 2 R 2     2 *.%.%.1 . { 2 0 ..2 <.[.[.  { ",
"%.!.R 0 + { 2 2 { 2 . + . 1 2   . . + + . { %.{ { 2 %.1 2 1 ( - . k   a . %.  + + 1 1 1 0 { { . p 0 .. .2 . . k 1 1 1 {   1   { ",
"$.~.2 . . /.1 ` R 2 { | . w   . . . # + + | 2 0 R R 2 V 2 . + + $.$.~.}.R %.{ - 9 { { . b - 2 #.+ 5 k 2   { # $.$.$.~.1 $.|./.. "};
